<svg id="a60d9b59-85b6-426f-a1c7-74aaed5d8887" data-name="Layer 1" xmlns="http://www.w3.org/2000/svg" xmlns:xlink="http://www.w3.org/1999/xlink" viewBox="0 0 100 100"><defs><clipPath id="ef267867-7eb1-4bcf-9944-67af5a014070"><rect y="-0.00001" width="100" height="99.81474" style="fill:none"/></clipPath></defs><g style="opacity:0.075"><rect y="-0.00001" width="100" height="99.81474" style="fill:none"/><rect y="-0.00001" width="100" height="99.81474" style="fill:#faf9f3"/><polygon points="45.353 7.045 52.297 7.045 48.824 13.047 45.353 19.05 41.881 13.047 38.409 7.045 45.353 7.045" style="fill:#f7d389"/><path d="M45.3526,23.07386l-6.7325-11.639H52.085ZM39.7481,12.085l5.6045,9.68912L50.957,12.085Z" style="fill:#2b2416"/><path d="M83.1143,58.417A11.49027,11.49027,0,1,1,71.624,46.94805,11.48,11.48,0,0,1,83.1143,58.417Z" style="fill:#f7d389"/><polygon points="67.973 64.008 67.155 64.008 67.563 63.301 67.973 62.595 68.381 63.301 68.789 64.008 67.973 64.008" style="fill:#2b2416"/><polygon points="70.808 64.008 69.99 64.008 70.398 63.301 70.808 62.595 71.216 63.301 71.624 64.008 70.808 64.008" style="fill:#2b2416"/><polygon points="73.643 64.008 72.825 64.008 73.233 63.301 73.643 62.595 74.051 63.301 74.459 64.008 73.643 64.008" style="fill:#2b2416"/><polygon points="76.478 64.008 75.66 64.008 76.068 63.301 76.478 62.595 76.886 63.301 77.294 64.008 76.478 64.008" style="fill:#2b2416"/><polygon points="79.312 64.008 78.495 64.008 78.904 63.301 79.312 62.595 79.721 63.301 80.129 64.008 79.312 64.008" style="fill:#2b2416"/><polygon points="82.147 64.008 81.33 64.008 81.739 63.301 82.147 62.595 82.556 63.301 82.964 64.008 82.147 64.008" style="fill:#2b2416"/><polygon points="84.982 64.008 84.166 64.008 84.574 63.301 84.982 62.595 85.391 63.301 85.799 64.008 84.982 64.008" style="fill:#2b2416"/><polygon points="87.817 64.008 87 64.008 87.409 63.301 87.817 62.595 88.226 63.301 88.634 64.008 87.817 64.008" style="fill:#2b2416"/><polygon points="90.652 64.008 89.836 64.008 90.244 63.301 90.652 62.595 91.061 63.301 91.469 64.008 90.652 64.008" style="fill:#2b2416"/><polygon points="93.487 64.008 92.671 64.008 93.079 63.301 93.487 62.595 93.895 63.301 94.305 64.008 93.487 64.008" style="fill:#2b2416"/><polygon points="67.973 61.213 67.155 61.213 67.563 60.506 67.973 59.8 68.381 60.506 68.789 61.213 67.973 61.213" style="fill:#2b2416"/><polygon points="70.808 61.213 69.99 61.213 70.398 60.506 70.808 59.8 71.216 60.506 71.624 61.213 70.808 61.213" style="fill:#2b2416"/><polygon points="73.643 61.213 72.825 61.213 73.233 60.506 73.643 59.8 74.051 60.506 74.459 61.213 73.643 61.213" style="fill:#2b2416"/><polygon points="76.478 61.213 75.66 61.213 76.068 60.506 76.478 59.8 76.886 60.506 77.294 61.213 76.478 61.213" style="fill:#2b2416"/><polygon points="79.312 61.213 78.495 61.213 78.904 60.506 79.312 59.8 79.721 60.506 80.129 61.213 79.312 61.213" style="fill:#2b2416"/><polygon points="82.147 61.213 81.33 61.213 81.739 60.506 82.147 59.8 82.556 60.506 82.964 61.213 82.147 61.213" style="fill:#2b2416"/><polygon points="84.982 61.213 84.166 61.213 84.574 60.506 84.982 59.8 85.391 60.506 85.799 61.213 84.982 61.213" style="fill:#2b2416"/><polygon points="87.817 61.213 87 61.213 87.409 60.506 87.817 59.8 88.226 60.506 88.634 61.213 87.817 61.213" style="fill:#2b2416"/><polygon points="90.652 61.213 89.836 61.213 90.244 60.506 90.652 59.8 91.061 60.506 91.469 61.213 90.652 61.213" style="fill:#2b2416"/><polygon points="93.487 61.213 92.671 61.213 93.079 60.506 93.487 59.8 93.895 60.506 94.305 61.213 93.487 61.213" style="fill:#2b2416"/><polygon points="67.973 58.417 67.155 58.417 67.563 57.711 67.973 57.005 68.381 57.711 68.789 58.417 67.973 58.417" style="fill:#2b2416"/><polygon points="70.808 58.417 69.99 58.417 70.398 57.711 70.808 57.005 71.216 57.711 71.624 58.417 70.808 58.417" style="fill:#2b2416"/><polygon points="73.643 58.417 72.825 58.417 73.233 57.711 73.643 57.005 74.051 57.711 74.459 58.417 73.643 58.417" style="fill:#2b2416"/><polygon points="76.478 58.417 75.66 58.417 76.068 57.711 76.478 57.005 76.886 57.711 77.294 58.417 76.478 58.417" style="fill:#2b2416"/><polygon points="79.312 58.417 78.495 58.417 78.904 57.711 79.312 57.005 79.721 57.711 80.129 58.417 79.312 58.417" style="fill:#2b2416"/><polygon points="82.147 58.417 81.33 58.417 81.739 57.711 82.147 57.005 82.556 57.711 82.964 58.417 82.147 58.417" style="fill:#2b2416"/><polygon points="84.982 58.417 84.166 58.417 84.574 57.711 84.982 57.005 85.391 57.711 85.799 58.417 84.982 58.417" style="fill:#2b2416"/><polygon points="87.817 58.417 87 58.417 87.409 57.711 87.817 57.005 88.226 57.711 88.634 58.417 87.817 58.417" style="fill:#2b2416"/><polygon points="90.652 58.417 89.836 58.417 90.244 57.711 90.652 57.005 91.061 57.711 91.469 58.417 90.652 58.417" style="fill:#2b2416"/><polygon points="93.487 58.417 92.671 58.417 93.079 57.711 93.487 57.005 93.895 57.711 94.305 58.417 93.487 58.417" style="fill:#2b2416"/><polygon points="67.973 55.622 67.155 55.622 67.563 54.916 67.973 54.21 68.381 54.916 68.789 55.622 67.973 55.622" style="fill:#2b2416"/><polygon points="70.808 55.622 69.99 55.622 70.398 54.916 70.808 54.21 71.216 54.916 71.624 55.622 70.808 55.622" style="fill:#2b2416"/><polygon points="73.643 55.622 72.825 55.622 73.233 54.916 73.643 54.21 74.051 54.916 74.459 55.622 73.643 55.622" style="fill:#2b2416"/><polygon points="76.478 55.622 75.66 55.622 76.068 54.916 76.478 54.21 76.886 54.916 77.294 55.622 76.478 55.622" style="fill:#2b2416"/><polygon points="79.312 55.622 78.495 55.622 78.904 54.916 79.312 54.21 79.721 54.916 80.129 55.622 79.312 55.622" style="fill:#2b2416"/><polygon points="82.147 55.622 81.33 55.622 81.739 54.916 82.147 54.21 82.556 54.916 82.964 55.622 82.147 55.622" style="fill:#2b2416"/><polygon points="84.982 55.622 84.166 55.622 84.574 54.916 84.982 54.21 85.391 54.916 85.799 55.622 84.982 55.622" style="fill:#2b2416"/><polygon points="87.817 55.622 87 55.622 87.409 54.916 87.817 54.21 88.226 54.916 88.634 55.622 87.817 55.622" style="fill:#2b2416"/><polygon points="90.652 55.622 89.836 55.622 90.244 54.916 90.652 54.21 91.061 54.916 91.469 55.622 90.652 55.622" style="fill:#2b2416"/><polygon points="93.487 55.622 92.671 55.622 93.079 54.916 93.487 54.21 93.895 54.916 94.305 55.622 93.487 55.622" style="fill:#2b2416"/><polygon points="67.973 52.827 67.155 52.827 67.563 52.121 67.973 51.415 68.381 52.121 68.789 52.827 67.973 52.827" style="fill:#2b2416"/><polygon points="70.808 52.827 69.99 52.827 70.398 52.121 70.808 51.415 71.216 52.121 71.624 52.827 70.808 52.827" style="fill:#2b2416"/><polygon points="73.643 52.827 72.825 52.827 73.233 52.121 73.643 51.415 74.051 52.121 74.459 52.827 73.643 52.827" style="fill:#2b2416"/><polygon points="76.478 52.827 75.66 52.827 76.068 52.121 76.478 51.415 76.886 52.121 77.294 52.827 76.478 52.827" style="fill:#2b2416"/><polygon points="79.312 52.827 78.495 52.827 78.904 52.121 79.312 51.415 79.721 52.121 80.129 52.827 79.312 52.827" style="fill:#2b2416"/><polygon points="82.147 52.827 81.33 52.827 81.739 52.121 82.147 51.415 82.556 52.121 82.964 52.827 82.147 52.827" style="fill:#2b2416"/><polygon points="84.982 52.827 84.166 52.827 84.574 52.121 84.982 51.415 85.391 52.121 85.799 52.827 84.982 52.827" style="fill:#2b2416"/><polygon points="87.817 52.827 87 52.827 87.409 52.121 87.817 51.415 88.226 52.121 88.634 52.827 87.817 52.827" style="fill:#2b2416"/><polygon points="90.652 52.827 89.836 52.827 90.244 52.121 90.652 51.415 91.061 52.121 91.469 52.827 90.652 52.827" style="fill:#2b2416"/><polygon points="93.487 52.827 92.671 52.827 93.079 52.121 93.487 51.415 93.895 52.121 94.305 52.827 93.487 52.827" style="fill:#2b2416"/><polygon points="67.973 50.032 67.155 50.032 67.563 49.325 67.973 48.62 68.381 49.325 68.789 50.032 67.973 50.032" style="fill:#2b2416"/><polygon points="70.808 50.032 69.99 50.032 70.398 49.325 70.808 48.62 71.216 49.325 71.624 50.032 70.808 50.032" style="fill:#2b2416"/><polygon points="73.643 50.032 72.825 50.032 73.233 49.325 73.643 48.62 74.051 49.325 74.459 50.032 73.643 50.032" style="fill:#2b2416"/><polygon points="76.478 50.032 75.66 50.032 76.068 49.325 76.478 48.62 76.886 49.325 77.294 50.032 76.478 50.032" style="fill:#2b2416"/><polygon points="79.312 50.032 78.495 50.032 78.904 49.325 79.312 48.62 79.721 49.325 80.129 50.032 79.312 50.032" style="fill:#2b2416"/><polygon points="82.147 50.032 81.33 50.032 81.739 49.325 82.147 48.62 82.556 49.325 82.964 50.032 82.147 50.032" style="fill:#2b2416"/><polygon points="84.982 50.032 84.166 50.032 84.574 49.325 84.982 48.62 85.391 49.325 85.799 50.032 84.982 50.032" style="fill:#2b2416"/><polygon points="87.817 50.032 87 50.032 87.409 49.325 87.817 48.62 88.226 49.325 88.634 50.032 87.817 50.032" style="fill:#2b2416"/><polygon points="90.652 50.032 89.836 50.032 90.244 49.325 90.652 48.62 91.061 49.325 91.469 50.032 90.652 50.032" style="fill:#2b2416"/><polygon points="93.487 50.032 92.671 50.032 93.079 49.325 93.487 48.62 93.895 49.325 94.305 50.032 93.487 50.032" style="fill:#2b2416"/><polygon points="67.973 47.237 67.155 47.237 67.563 46.53 67.973 45.824 68.381 46.53 68.789 47.237 67.973 47.237" style="fill:#2b2416"/><polygon points="70.808 47.237 69.99 47.237 70.398 46.53 70.808 45.824 71.216 46.53 71.624 47.237 70.808 47.237" style="fill:#2b2416"/><polygon points="73.643 47.237 72.825 47.237 73.233 46.53 73.643 45.824 74.051 46.53 74.459 47.237 73.643 47.237" style="fill:#2b2416"/><polygon points="76.478 47.237 75.66 47.237 76.068 46.53 76.478 45.824 76.886 46.53 77.294 47.237 76.478 47.237" style="fill:#2b2416"/><polygon points="79.312 47.237 78.495 47.237 78.904 46.53 79.312 45.824 79.721 46.53 80.129 47.237 79.312 47.237" style="fill:#2b2416"/><polygon points="82.147 47.237 81.33 47.237 81.739 46.53 82.147 45.824 82.556 46.53 82.964 47.237 82.147 47.237" style="fill:#2b2416"/><polygon points="84.982 47.237 84.166 47.237 84.574 46.53 84.982 45.824 85.391 46.53 85.799 47.237 84.982 47.237" style="fill:#2b2416"/><polygon points="87.817 47.237 87 47.237 87.409 46.53 87.817 45.824 88.226 46.53 88.634 47.237 87.817 47.237" style="fill:#2b2416"/><polygon points="90.652 47.237 89.836 47.237 90.244 46.53 90.652 45.824 91.061 46.53 91.469 47.237 90.652 47.237" style="fill:#2b2416"/><polygon points="93.487 47.237 92.671 47.237 93.079 46.53 93.487 45.824 93.895 46.53 94.305 47.237 93.487 47.237" style="fill:#2b2416"/><polygon points="67.973 44.441 67.155 44.441 67.563 43.735 67.973 43.029 68.381 43.735 68.789 44.441 67.973 44.441" style="fill:#2b2416"/><polygon points="70.808 44.441 69.99 44.441 70.398 43.735 70.808 43.029 71.216 43.735 71.624 44.441 70.808 44.441" style="fill:#2b2416"/><polygon points="73.643 44.441 72.825 44.441 73.233 43.735 73.643 43.029 74.051 43.735 74.459 44.441 73.643 44.441" style="fill:#2b2416"/><polygon points="76.478 44.441 75.66 44.441 76.068 43.735 76.478 43.029 76.886 43.735 77.294 44.441 76.478 44.441" style="fill:#2b2416"/><polygon points="79.312 44.441 78.495 44.441 78.904 43.735 79.312 43.029 79.721 43.735 80.129 44.441 79.312 44.441" style="fill:#2b2416"/><polygon points="82.147 44.441 81.33 44.441 81.739 43.735 82.147 43.029 82.556 43.735 82.964 44.441 82.147 44.441" style="fill:#2b2416"/><polygon points="84.982 44.441 84.166 44.441 84.574 43.735 84.982 43.029 85.391 43.735 85.799 44.441 84.982 44.441" style="fill:#2b2416"/><polygon points="87.817 44.441 87 44.441 87.409 43.735 87.817 43.029 88.226 43.735 88.634 44.441 87.817 44.441" style="fill:#2b2416"/><polygon points="90.652 44.441 89.836 44.441 90.244 43.735 90.652 43.029 91.061 43.735 91.469 44.441 90.652 44.441" style="fill:#2b2416"/><polygon points="93.487 44.441 92.671 44.441 93.079 43.735 93.487 43.029 93.895 43.735 94.305 44.441 93.487 44.441" style="fill:#2b2416"/><polygon points="67.973 41.646 67.155 41.646 67.563 40.94 67.973 40.234 68.381 40.94 68.789 41.646 67.973 41.646" style="fill:#2b2416"/><polygon points="70.808 41.646 69.99 41.646 70.398 40.94 70.808 40.234 71.216 40.94 71.624 41.646 70.808 41.646" style="fill:#2b2416"/><polygon points="73.643 41.646 72.825 41.646 73.233 40.94 73.643 40.234 74.051 40.94 74.459 41.646 73.643 41.646" style="fill:#2b2416"/><polygon points="76.478 41.646 75.66 41.646 76.068 40.94 76.478 40.234 76.886 40.94 77.294 41.646 76.478 41.646" style="fill:#2b2416"/><polygon points="79.312 41.646 78.495 41.646 78.904 40.94 79.312 40.234 79.721 40.94 80.129 41.646 79.312 41.646" style="fill:#2b2416"/><polygon points="82.147 41.646 81.33 41.646 81.739 40.94 82.147 40.234 82.556 40.94 82.964 41.646 82.147 41.646" style="fill:#2b2416"/><polygon points="84.982 41.646 84.166 41.646 84.574 40.94 84.982 40.234 85.391 40.94 85.799 41.646 84.982 41.646" style="fill:#2b2416"/><polygon points="87.817 41.646 87 41.646 87.409 40.94 87.817 40.234 88.226 40.94 88.634 41.646 87.817 41.646" style="fill:#2b2416"/><polygon points="90.652 41.646 89.836 41.646 90.244 40.94 90.652 40.234 91.061 40.94 91.469 41.646 90.652 41.646" style="fill:#2b2416"/><polygon points="93.487 41.646 92.671 41.646 93.079 40.94 93.487 40.234 93.895 40.94 94.305 41.646 93.487 41.646" style="fill:#2b2416"/><polygon points="67.973 38.851 67.155 38.851 67.563 38.145 67.973 37.439 68.381 38.145 68.789 38.851 67.973 38.851" style="fill:#2b2416"/><polygon points="70.808 38.851 69.99 38.851 70.398 38.145 70.808 37.439 71.216 38.145 71.624 38.851 70.808 38.851" style="fill:#2b2416"/><polygon points="73.643 38.851 72.825 38.851 73.233 38.145 73.643 37.439 74.051 38.145 74.459 38.851 73.643 38.851" style="fill:#2b2416"/><polygon points="76.478 38.851 75.66 38.851 76.068 38.145 76.478 37.439 76.886 38.145 77.294 38.851 76.478 38.851" style="fill:#2b2416"/><polygon points="79.312 38.851 78.495 38.851 78.904 38.145 79.312 37.439 79.721 38.145 80.129 38.851 79.312 38.851" style="fill:#2b2416"/><polygon points="82.147 38.851 81.33 38.851 81.739 38.145 82.147 37.439 82.556 38.145 82.964 38.851 82.147 38.851" style="fill:#2b2416"/><polygon points="84.982 38.851 84.166 38.851 84.574 38.145 84.982 37.439 85.391 38.145 85.799 38.851 84.982 38.851" style="fill:#2b2416"/><polygon points="87.817 38.851 87 38.851 87.409 38.145 87.817 37.439 88.226 38.145 88.634 38.851 87.817 38.851" style="fill:#2b2416"/><polygon points="90.652 38.851 89.836 38.851 90.244 38.145 90.652 37.439 91.061 38.145 91.469 38.851 90.652 38.851" style="fill:#2b2416"/><polygon points="93.487 38.851 92.671 38.851 93.079 38.145 93.487 37.439 93.895 38.145 94.305 38.851 93.487 38.851" style="fill:#2b2416"/><polygon points="85.741 81.425 92.193 81.425 88.967 87.002 85.741 92.579 82.516 87.002 79.289 81.425 85.741 81.425" style="fill:#2b2416"/><path d="M40.51272,38.85118A8.40087,8.40087,0,1,1,32.1113,30.466,8.39356,8.39356,0,0,1,40.51272,38.85118Z" style="fill:#aee2e6"/><path d="M20.88672,73.98088a8.39272,8.39272,0,0,0-8.40042-8.38535V82.36622A8.39277,8.39277,0,0,0,20.88672,73.98088Z" style="fill:#f7d389"/><path d="M15.3985,92.62687a.35405.35405,0,0,0-.7081,0v.00829q.29748.12951.6036.24175A.35147.35147,0,0,0,15.3985,92.62687Z" style="fill:#2b2416"/><path d="M17.041,92.27353a.35335.35335,0,1,0,.3535.35334A.35406.35406,0,0,0,17.041,92.27353Z" style="fill:#2b2416"/><path d="M19.0371,92.27353a.35335.35335,0,1,0,.3545.35334A.35319.35319,0,0,0,19.0371,92.27353Z" style="fill:#2b2416"/><path d="M21.0342,92.27353a.35335.35335,0,1,0,.35352.35334A.35339.35339,0,0,0,21.0342,92.27353Z" style="fill:#2b2416"/><path d="M23.0303,92.27353a.35347.35347,0,0,0-.25.60338q.30615-.11184.6035-.24175l.001-.00829A.35341.35341,0,0,0,23.0303,92.27353Z" style="fill:#2b2416"/><path d="M13.0479,90.28073a.35335.35335,0,1,0,.3535.35334A.35341.35341,0,0,0,13.0479,90.28073Z" style="fill:#2b2416"/><path d="M15.044,90.28073a.35335.35335,0,1,0,.3545.35334A.35322.35322,0,0,0,15.044,90.28073Z" style="fill:#2b2416"/><path d="M17.041,90.28073a.35335.35335,0,1,0,.3535.35334A.35406.35406,0,0,0,17.041,90.28073Z" style="fill:#2b2416"/><path d="M19.0371,90.28073a.35335.35335,0,1,0,.3545.35334A.35319.35319,0,0,0,19.0371,90.28073Z" style="fill:#2b2416"/><path d="M21.0342,90.28073a.35335.35335,0,1,0,.35352.35334A.35339.35339,0,0,0,21.0342,90.28073Z" style="fill:#2b2416"/><path d="M23.0303,90.28073a.35335.35335,0,1,0,.3545.35334A.35319.35319,0,0,0,23.0303,90.28073Z" style="fill:#2b2416"/><path d="M25.0274,90.28073a.35335.35335,0,1,0,.3535.35334A.354.354,0,0,0,25.0274,90.28073Z" style="fill:#2b2416"/><path d="M11.0508,88.28783a.35335.35335,0,1,0,.3545.35334A.35351.35351,0,0,0,11.0508,88.28783Z" style="fill:#2b2416"/><path d="M13.0479,88.28783a.35335.35335,0,1,0,.3535.35334A.35372.35372,0,0,0,13.0479,88.28783Z" style="fill:#2b2416"/><path d="M15.044,88.28783a.35335.35335,0,1,0,.3545.35334A.35353.35353,0,0,0,15.044,88.28783Z" style="fill:#2b2416"/><path d="M17.041,88.28783a.35335.35335,0,1,0,.3535.35334A.35438.35438,0,0,0,17.041,88.28783Z" style="fill:#2b2416"/><path d="M19.0371,88.28783a.35335.35335,0,1,0,.3545.35334A.35351.35351,0,0,0,19.0371,88.28783Z" style="fill:#2b2416"/><path d="M21.0342,88.28783a.35335.35335,0,1,0,.35352.35334A.35371.35371,0,0,0,21.0342,88.28783Z" style="fill:#2b2416"/><path d="M23.0303,88.28783a.35335.35335,0,1,0,.3545.35334A.35351.35351,0,0,0,23.0303,88.28783Z" style="fill:#2b2416"/><path d="M25.0274,88.28783a.35335.35335,0,1,0,.3535.35334A.3543.3543,0,0,0,25.0274,88.28783Z" style="fill:#2b2416"/><path d="M27.0235,88.28783a.35335.35335,0,1,0,.3544.35334A.35353.35353,0,0,0,27.0235,88.28783Z" style="fill:#2b2416"/><path d="M9.4082,86.64827a.354.354,0,0,0-.60448-.24954q.11277.30559.24318.60288h.00782A.35318.35318,0,0,0,9.4082,86.64827Z" style="fill:#2b2416"/><path d="M11.0508,86.29493a.35334.35334,0,1,0,.3545.35334A.35351.35351,0,0,0,11.0508,86.29493Z" style="fill:#2b2416"/><path d="M13.0479,86.29493a.35334.35334,0,1,0,.3535.35334A.35372.35372,0,0,0,13.0479,86.29493Z" style="fill:#2b2416"/><path d="M15.044,86.29493a.35334.35334,0,1,0,.3545.35334A.35353.35353,0,0,0,15.044,86.29493Z" style="fill:#2b2416"/><path d="M17.041,86.29493a.35334.35334,0,1,0,.3535.35334A.35438.35438,0,0,0,17.041,86.29493Z" style="fill:#2b2416"/><path d="M19.0371,86.29493a.35334.35334,0,1,0,.3545.35334A.35351.35351,0,0,0,19.0371,86.29493Z" style="fill:#2b2416"/><path d="M21.0342,86.29493a.35334.35334,0,1,0,.35352.35334A.35371.35371,0,0,0,21.0342,86.29493Z" style="fill:#2b2416"/><path d="M23.0303,86.29493a.35334.35334,0,1,0,.3545.35334A.35351.35351,0,0,0,23.0303,86.29493Z" style="fill:#2b2416"/><path d="M25.0274,86.29493a.35334.35334,0,1,0,.3535.35334A.3543.3543,0,0,0,25.0274,86.29493Z" style="fill:#2b2416"/><path d="M27.0235,86.29493a.35334.35334,0,1,0,.3544.35334A.35353.35353,0,0,0,27.0235,86.29493Z" style="fill:#2b2416"/><path d="M29.0205,86.29493a.35334.35334,0,1,0,0,.70668h.0078c.086-.19833.168-.39915.2422-.60288A.35211.35211,0,0,0,29.0205,86.29493Z" style="fill:#2b2416"/><path d="M9.05472,84.302a.35359.35359,0,1,0,.35348.35334A.35373.35373,0,0,0,9.05472,84.302Z" style="fill:#2b2416"/><path d="M11.0508,84.302a.35359.35359,0,1,0,.3545.35334A.35351.35351,0,0,0,11.0508,84.302Z" style="fill:#2b2416"/><path d="M13.0479,84.302a.35359.35359,0,1,0,.3535.35334A.35372.35372,0,0,0,13.0479,84.302Z" style="fill:#2b2416"/><path d="M15.044,84.302a.35359.35359,0,1,0,.3545.35334A.35353.35353,0,0,0,15.044,84.302Z" style="fill:#2b2416"/><path d="M17.041,84.302a.35359.35359,0,1,0,.3535.35334A.35438.35438,0,0,0,17.041,84.302Z" style="fill:#2b2416"/><path d="M19.0371,84.302a.35359.35359,0,1,0,.3545.35334A.35351.35351,0,0,0,19.0371,84.302Z" style="fill:#2b2416"/><path d="M21.0342,84.302a.35359.35359,0,1,0,.35352.35334A.35371.35371,0,0,0,21.0342,84.302Z" style="fill:#2b2416"/><path d="M23.0303,84.302a.35359.35359,0,1,0,.3545.35334A.35351.35351,0,0,0,23.0303,84.302Z" style="fill:#2b2416"/><path d="M25.0274,84.302a.35359.35359,0,1,0,.3535.35334A.3543.3543,0,0,0,25.0274,84.302Z" style="fill:#2b2416"/><path d="M27.0235,84.302a.35359.35359,0,1,0,.3544.35334A.35353.35353,0,0,0,27.0235,84.302Z" style="fill:#2b2416"/><path d="M29.0205,84.302a.35359.35359,0,1,0,.3535.35334A.35372.35372,0,0,0,29.0205,84.302Z" style="fill:#2b2416"/><path d="M9.05472,82.30962a.35335.35335,0,1,0,.35348.35335A.35342.35342,0,0,0,9.05472,82.30962Z" style="fill:#2b2416"/><path d="M11.0508,82.30962a.35335.35335,0,1,0,.3545.35335A.3532.3532,0,0,0,11.0508,82.30962Z" style="fill:#2b2416"/><path d="M13.0479,82.30962a.35335.35335,0,1,0,.3535.35335A.35341.35341,0,0,0,13.0479,82.30962Z" style="fill:#2b2416"/><path d="M15.044,82.30962a.35335.35335,0,1,0,.3545.35335A.35322.35322,0,0,0,15.044,82.30962Z" style="fill:#2b2416"/><path d="M17.041,82.30962a.35335.35335,0,1,0,.3535.35335A.35406.35406,0,0,0,17.041,82.30962Z" style="fill:#2b2416"/><path d="M19.0371,82.30962a.35335.35335,0,1,0,.3545.35335A.3532.3532,0,0,0,19.0371,82.30962Z" style="fill:#2b2416"/><path d="M21.0342,82.30962a.35335.35335,0,1,0,.35352.35335A.3534.3534,0,0,0,21.0342,82.30962Z" style="fill:#2b2416"/><path d="M23.0303,82.30962a.35335.35335,0,1,0,.3545.35335A.3532.3532,0,0,0,23.0303,82.30962Z" style="fill:#2b2416"/><path d="M25.0274,82.30962a.35335.35335,0,1,0,.3535.35335A.354.354,0,0,0,25.0274,82.30962Z" style="fill:#2b2416"/><path d="M27.0235,82.30962a.35335.35335,0,1,0,.3544.35335A.35322.35322,0,0,0,27.0235,82.30962Z" style="fill:#2b2416"/><path d="M29.0205,82.30962a.35335.35335,0,1,0,.3535.35335A.35341.35341,0,0,0,29.0205,82.30962Z" style="fill:#2b2416"/><path d="M9.05472,80.31672a.35335.35335,0,1,0,.35348.35335A.35342.35342,0,0,0,9.05472,80.31672Z" style="fill:#2b2416"/><path d="M11.0508,80.31672a.35335.35335,0,1,0,.3545.35335A.3532.3532,0,0,0,11.0508,80.31672Z" style="fill:#2b2416"/><path d="M13.0479,80.31672a.35335.35335,0,1,0,.3535.35335A.35341.35341,0,0,0,13.0479,80.31672Z" style="fill:#2b2416"/><path d="M15.044,80.31672a.35335.35335,0,1,0,.3545.35335A.35322.35322,0,0,0,15.044,80.31672Z" style="fill:#2b2416"/><path d="M17.041,80.31672a.35335.35335,0,1,0,.3535.35335A.35406.35406,0,0,0,17.041,80.31672Z" style="fill:#2b2416"/><path d="M19.0371,80.31672a.35335.35335,0,1,0,.3545.35335A.3532.3532,0,0,0,19.0371,80.31672Z" style="fill:#2b2416"/><path d="M21.0342,80.31672a.35335.35335,0,1,0,.35352.35335A.3534.3534,0,0,0,21.0342,80.31672Z" style="fill:#2b2416"/><path d="M23.0303,80.31672a.35335.35335,0,1,0,.3545.35335A.3532.3532,0,0,0,23.0303,80.31672Z" style="fill:#2b2416"/><path d="M25.0274,80.31672a.35335.35335,0,1,0,.3535.35335A.354.354,0,0,0,25.0274,80.31672Z" style="fill:#2b2416"/><path d="M27.0235,80.31672a.35335.35335,0,1,0,.3544.35335A.35322.35322,0,0,0,27.0235,80.31672Z" style="fill:#2b2416"/><path d="M29.0205,80.31672a.35335.35335,0,1,0,.3535.35335A.35341.35341,0,0,0,29.0205,80.31672Z" style="fill:#2b2416"/><path d="M9.05472,79.03061a.3534.3534,0,1,0,0-.70679l-.00782.0005q-.13035.2969-.24318.60288A.35583.35583,0,0,0,9.05472,79.03061Z" style="fill:#2b2416"/><path d="M11.0508,78.32382a.3534.3534,0,1,0,.3545.35344A.35354.35354,0,0,0,11.0508,78.32382Z" style="fill:#2b2416"/><path d="M13.0479,78.32382a.3534.3534,0,1,0,.3535.35344A.35375.35375,0,0,0,13.0479,78.32382Z" style="fill:#2b2416"/><path d="M15.044,78.32382a.3534.3534,0,1,0,.3545.35344A.35356.35356,0,0,0,15.044,78.32382Z" style="fill:#2b2416"/><path d="M17.041,78.32382a.3534.3534,0,1,0,.3535.35344A.3544.3544,0,0,0,17.041,78.32382Z" style="fill:#2b2416"/><path d="M19.0371,78.32382a.3534.3534,0,1,0,.3545.35344A.35354.35354,0,0,0,19.0371,78.32382Z" style="fill:#2b2416"/><path d="M21.0342,78.32382a.3534.3534,0,1,0,.35352.35344A.35373.35373,0,0,0,21.0342,78.32382Z" style="fill:#2b2416"/><path d="M23.0303,78.32382a.3534.3534,0,1,0,.3545.35344A.35354.35354,0,0,0,23.0303,78.32382Z" style="fill:#2b2416"/><path d="M25.0274,78.32382a.3534.3534,0,1,0,.3535.35344A.35433.35433,0,0,0,25.0274,78.32382Z" style="fill:#2b2416"/><path d="M27.0235,78.32382a.3534.3534,0,1,0,.3544.35344A.35356.35356,0,0,0,27.0235,78.32382Z" style="fill:#2b2416"/><path d="M28.666,78.67726a.35433.35433,0,0,0,.6045.24994c-.0742-.20422-.1562-.40495-.2422-.60288l-.0078-.0005A.35375.35375,0,0,0,28.666,78.67726Z" style="fill:#2b2416"/><path d="M11.0508,76.331a.35335.35335,0,1,0,.3545.35334A.35351.35351,0,0,0,11.0508,76.331Z" style="fill:#2b2416"/><path d="M13.0479,76.331a.35335.35335,0,1,0,.3535.35334A.35373.35373,0,0,0,13.0479,76.331Z" style="fill:#2b2416"/><path d="M15.044,76.331a.35335.35335,0,1,0,.3545.35334A.35354.35354,0,0,0,15.044,76.331Z" style="fill:#2b2416"/><path d="M17.041,76.331a.35335.35335,0,1,0,.3535.35334A.35438.35438,0,0,0,17.041,76.331Z" style="fill:#2b2416"/><path d="M19.0371,76.331a.35335.35335,0,1,0,.3545.35334A.35351.35351,0,0,0,19.0371,76.331Z" style="fill:#2b2416"/><path d="M21.0342,76.331a.35335.35335,0,1,0,.35352.35334A.35371.35371,0,0,0,21.0342,76.331Z" style="fill:#2b2416"/><path d="M23.0303,76.331a.35335.35335,0,1,0,.3545.35334A.35351.35351,0,0,0,23.0303,76.331Z" style="fill:#2b2416"/><path d="M25.0274,76.331a.35335.35335,0,1,0,.3535.35334A.35431.35431,0,0,0,25.0274,76.331Z" style="fill:#2b2416"/><path d="M27.0235,76.331a.35335.35335,0,1,0,.3544.35334A.35354.35354,0,0,0,27.0235,76.331Z" style="fill:#2b2416"/><path d="M13.0479,74.33812a.3536.3536,0,1,0,.3535.35334A.35372.35372,0,0,0,13.0479,74.33812Z" style="fill:#2b2416"/><path d="M15.044,74.33812a.3536.3536,0,1,0,.3545.35334A.35353.35353,0,0,0,15.044,74.33812Z" style="fill:#2b2416"/><path d="M17.041,74.33812a.3536.3536,0,1,0,.3535.35334A.35438.35438,0,0,0,17.041,74.33812Z" style="fill:#2b2416"/><path d="M19.0371,74.33812a.3536.3536,0,1,0,.3545.35334A.35351.35351,0,0,0,19.0371,74.33812Z" style="fill:#2b2416"/><path d="M21.0342,74.33812a.3536.3536,0,1,0,.35352.35334A.35371.35371,0,0,0,21.0342,74.33812Z" style="fill:#2b2416"/><path d="M23.0303,74.33812a.3536.3536,0,1,0,.3545.35334A.35351.35351,0,0,0,23.0303,74.33812Z" style="fill:#2b2416"/><path d="M25.0274,74.33812a.3536.3536,0,1,0,.3535.35334A.3543.3543,0,0,0,25.0274,74.33812Z" style="fill:#2b2416"/><path d="M15.044,73.0524a.35311.35311,0,0,0,.25-.60387c-.2041.07456-.40528.156-.6036.24225v.00828A.35353.35353,0,0,0,15.044,73.0524Z" style="fill:#2b2416"/><path d="M17.041,72.34522a.35359.35359,0,1,0,.3535.35384A.35448.35448,0,0,0,17.041,72.34522Z" style="fill:#2b2416"/><path d="M19.0371,72.34522a.35359.35359,0,1,0,.3545.35384A.35361.35361,0,0,0,19.0371,72.34522Z" style="fill:#2b2416"/><path d="M21.0342,72.34522a.35359.35359,0,1,0,.35352.35384A.35381.35381,0,0,0,21.0342,72.34522Z" style="fill:#2b2416"/><path d="M22.6768,72.69906a.354.354,0,0,0,.708,0l-.001-.00828c-.1982-.08624-.3994-.16769-.6035-.24225A.3548.3548,0,0,0,22.6768,72.69906Z" style="fill:#2b2416"/><rect x="56.6309" y="85.00921" width="7.2773" height="7.26432" style="fill:#aee2e6"/><rect x="38.7471" y="66.22181" width="13.081" height="13.05734" style="fill:#aee2e6"/><path d="M67.752,88.58707H60.0645V80.91471H67.752Zm-7.0869-.59849h6.4863V81.5137H60.6651Z" style="fill:#2b2416"/><rect x="18.3955" y="50.77343" width="7.2774" height="7.26435" style="fill:#fcc26f"/><path d="M14.5518,54.45946h7.6865v7.67229H14.5518Zm7.08692.599H15.1524v6.4748h6.48632Z" style="fill:#2b2416"/><path d="M67.1553,28.42913a8.39361,8.39361,0,0,0,8.40142-8.38524H58.7549A8.39267,8.39267,0,0,0,67.1553,28.42913Z" style="fill:#aee2e6"/><path d="M33.251,45.71255a.60874.60874,0,0,0-.6094.60867h1.2188A.60874.60874,0,0,0,33.251,45.71255Z" style="fill:#2b2416"/><path d="M35.55672,45.71255a.6087.6087,0,0,0-.60942.60867H36.166A.60865.60865,0,0,0,35.55672,45.71255Z" style="fill:#2b2416"/><path d="M37.8623,45.71255a.60951.60951,0,0,0-.6103.60867h1.21972A.60876.60876,0,0,0,37.8623,45.71255Z" style="fill:#2b2416"/><path d="M40.168,45.71255a.60874.60874,0,0,0-.6094.60867h1.2188A.60874.60874,0,0,0,40.168,45.71255Z" style="fill:#2b2416"/><path d="M42.4736,45.71255a.60952.60952,0,0,0-.6103.60867H43.083A.60868.60868,0,0,0,42.4736,45.71255Z" style="fill:#2b2416"/><path d="M44.7793,45.71255a.60951.60951,0,0,0-.6103.60867h1.21972A.60876.60876,0,0,0,44.7793,45.71255Z" style="fill:#2b2416"/><path d="M47.085,45.71255a.6096.6096,0,0,0-.6104.60867h1.2197A.60866.60866,0,0,0,47.085,45.71255Z" style="fill:#2b2416"/><path d="M49.3906,45.71255a.60952.60952,0,0,0-.6103.60867H50A.60932.60932,0,0,0,49.3906,45.71255Z" style="fill:#2b2416"/><path d="M33.251,44.13727a.60873.60873,0,0,0-.6094.60827h1.2188A.60873.60873,0,0,0,33.251,44.13727Z" style="fill:#2b2416"/><path d="M35.55672,44.13727a.60868.60868,0,0,0-.60942.60827H36.166A.60864.60864,0,0,0,35.55672,44.13727Z" style="fill:#2b2416"/><path d="M37.8623,44.13727a.6095.6095,0,0,0-.6103.60827h1.21972A.60874.60874,0,0,0,37.8623,44.13727Z" style="fill:#2b2416"/><path d="M40.168,44.13727a.60873.60873,0,0,0-.6094.60827h1.2188A.60873.60873,0,0,0,40.168,44.13727Z" style="fill:#2b2416"/><path d="M42.4736,44.13727a.60951.60951,0,0,0-.6103.60827H43.083A.60866.60866,0,0,0,42.4736,44.13727Z" style="fill:#2b2416"/><path d="M44.7793,44.13727a.6095.6095,0,0,0-.6103.60827h1.21972A.60874.60874,0,0,0,44.7793,44.13727Z" style="fill:#2b2416"/><path d="M47.085,44.13727a.60958.60958,0,0,0-.6104.60827h1.2197A.60864.60864,0,0,0,47.085,44.13727Z" style="fill:#2b2416"/><path d="M49.3906,44.13727a.60951.60951,0,0,0-.6103.60827H50A.6093.6093,0,0,0,49.3906,44.13727Z" style="fill:#2b2416"/><path d="M33.251,42.5616a.60883.60883,0,0,0-.6094.60877h1.2188A.60883.60883,0,0,0,33.251,42.5616Z" style="fill:#2b2416"/><path d="M35.55672,42.5616a.60878.60878,0,0,0-.60942.60877H36.166A.60874.60874,0,0,0,35.55672,42.5616Z" style="fill:#2b2416"/><path d="M37.8623,42.5616a.6096.6096,0,0,0-.6103.60877h1.21972A.60884.60884,0,0,0,37.8623,42.5616Z" style="fill:#2b2416"/><path d="M40.168,42.5616a.60883.60883,0,0,0-.6094.60877h1.2188A.60883.60883,0,0,0,40.168,42.5616Z" style="fill:#2b2416"/><path d="M42.4736,42.5616a.60961.60961,0,0,0-.6103.60877H43.083A.60876.60876,0,0,0,42.4736,42.5616Z" style="fill:#2b2416"/><path d="M44.7793,42.5616a.6096.6096,0,0,0-.6103.60877h1.21972A.60884.60884,0,0,0,44.7793,42.5616Z" style="fill:#2b2416"/><path d="M47.085,42.5616a.60968.60968,0,0,0-.6104.60877h1.2197A.60874.60874,0,0,0,47.085,42.5616Z" style="fill:#2b2416"/><path d="M49.3906,42.5616a.60961.60961,0,0,0-.6103.60877H50A.6094.6094,0,0,0,49.3906,42.5616Z" style="fill:#2b2416"/><rect x="51.1904" y="30.79104" width="3.5166" height="0.74612" style="fill:#aee2e6"/><rect x="48.5274" y="28.88288" width="3.5166" height="0.74622" style="fill:#aee2e6"/><rect x="45.8135" y="25.55855" width="3.5166" height="0.74612" style="fill:#aee2e6"/><rect x="43.5166" y="27.33106" width="3.5166" height="0.74622" style="fill:#aee2e6"/><rect x="53.7783" y="28.88288" width="3.5166" height="0.74622" style="fill:#aee2e6"/><rect x="23.5811" y="81.31297" width="3.51561" height="0.74612" style="fill:#aee2e6"/><rect x="26.2432" y="83.22053" width="3.5166" height="0.74622" style="fill:#aee2e6"/><rect x="28.958" y="86.54546" width="3.5166" height="0.74612" style="fill:#aee2e6"/><rect x="31.2539" y="84.77285" width="3.5166" height="0.74612" style="fill:#aee2e6"/><rect x="20.9932" y="83.22053" width="3.5156" height="0.74622" style="fill:#aee2e6"/><rect x="56.9961" y="42.79756" width="3.51662" height="0.74612" style="fill:#2b2416"/><rect x="32.1026" y="52.29649" width="3.5166" height="0.74618" style="fill:#2b2416"/><rect x="3.0195" y="51.92316" width="3.5166" height="0.74618" style="fill:#2b2416"/><rect x="22.9151" y="94.97901" width="3.51661" height="0.74612" style="fill:#2b2416"/><rect x="76.7373" y="72.6791" width="3.5166" height="0.74612" style="fill:#2b2416"/><rect x="64.4561" y="33.92772" width="3.51662" height="0.74622" style="fill:#2b2416"/><rect x="80.6963" y="9.22896" width="0.7471" height="3.50959" style="fill:#aee2e6"/><rect x="82.6074" y="6.57129" width="0.7481" height="3.51009" style="fill:#aee2e6"/><rect x="85.9385" y="3.86192" width="0.7471" height="3.50969" style="fill:#aee2e6"/><rect x="84.1621" y="1.56988" width="0.7481" height="3.50959" style="fill:#aee2e6"/><rect x="82.6074" y="11.81207" width="0.7481" height="3.50959" style="fill:#aee2e6"/><rect x="59.542" y="65.90453" width="0.7471" height="3.51013" style="fill:#aee2e6"/><rect x="57.6309" y="68.56224" width="0.747" height="3.50959" style="fill:#aee2e6"/><rect x="54.2998" y="71.27151" width="0.7471" height="3.51009" style="fill:#aee2e6"/><rect x="56.0752" y="73.56366" width="0.7481" height="3.51009" style="fill:#aee2e6"/><rect x="57.6309" y="63.32144" width="0.747" height="3.51009" style="fill:#aee2e6"/><rect x="18.6641" y="32.91889" width="0.747" height="3.50959" style="fill:#2b2416"/><rect x="31.7383" y="21.31882" width="0.7471" height="3.51009" style="fill:#2b2416"/><rect x="71.25" y="2.10688" width="0.7481" height="3.50969" style="fill:#2b2416"/><rect x="1.26172" y="9.82066" width="3.51659" height="0.74612" style="fill:#2b2416"/><rect x="4.4043" y="59.0798" width="0.7471" height="3.5096" style="fill:#2b2416"/><rect x="41.1113" y="87.23947" width="0.7481" height="3.51009" style="fill:#2b2416"/><rect x="6.2305" y="92.98022" width="0.748" height="3.50969" style="fill:#2b2416"/><rect x="55.1631" y="49.71681" width="0.7471" height="3.51009" style="fill:#2b2416"/><rect x="96.209" y="34.30063" width="0.748" height="3.51009" style="fill:#2b2416"/><rect x="91.8193" y="15.49952" width="0.7471" height="3.51009" style="fill:#2b2416"/><rect x="55.5366" y="9.22896" width="0.7476" height="3.50959" style="fill:#2b2416"/><rect x="74.7676" y="86.88613" width="0.748" height="3.51009" style="fill:#2b2416"/><rect x="22.65675" y="6.57129" width="0.74755" height="3.51009" style="fill:#2b2416"/><polygon points="15.341 45.2 13.957 45.2 13.957 43.819 13.209 43.819 13.209 45.2 11.824 45.2 11.824 45.946 13.209 45.946 13.209 47.329 13.957 47.329 13.957 45.946 15.341 45.946 15.341 45.2" style="fill:#2b2416"/><polygon points="10.459 4.707 9.074 4.707 9.074 3.325 8.326 3.325 8.326 4.707 6.942 4.707 6.942 5.453 8.326 5.453 8.326 6.835 9.074 6.835 9.074 5.453 10.459 5.453 10.459 4.707" style="fill:#2b2416"/><polygon points="37.925 18.636 36.54 18.636 36.54 17.255 35.793 17.255 35.793 18.636 34.408 18.636 34.408 19.383 35.793 19.383 35.793 20.764 36.54 20.764 36.54 19.383 37.925 19.383 37.925 18.636" style="fill:#f7d389"/><polygon points="32.475 72.076 31.09 72.076 31.09 70.693 30.342 70.693 30.342 72.076 28.958 72.076 28.958 72.822 30.342 72.822 30.342 74.204 31.09 74.204 31.09 72.822 32.475 72.822 32.475 72.076" style="fill:#aee2e6"/><polygon points="57.295 37.437 55.91 37.437 55.91 36.056 55.163 36.056 55.163 37.437 53.778 37.437 53.778 38.184 55.163 38.184 55.163 39.566 55.91 39.566 55.91 38.184 57.295 38.184 57.295 37.437" style="fill:#aee2e6"/><polygon points="76.217 78.658 74.833 78.658 74.833 77.276 74.085 77.276 74.085 78.658 72.701 78.658 72.701 79.404 74.085 79.404 74.085 80.786 74.833 80.786 74.833 79.404 76.217 79.404 76.217 78.658" style="fill:#aee2e6"/><polygon points="13.583 36.056 12.198 36.056 12.198 34.674 11.451 34.674 11.451 36.056 10.066 36.056 10.066 36.802 11.451 36.802 11.451 38.184 12.198 38.184 12.198 36.802 13.583 36.802 13.583 36.056" style="fill:#aee2e6"/><polygon points="78.235 15.126 76.851 15.126 76.851 13.744 76.103 13.744 76.103 15.126 74.719 15.126 74.719 15.872 76.103 15.872 76.103 17.255 76.851 17.255 76.851 15.872 78.235 15.872 78.235 15.126" style="fill:#aee2e6"/><polygon points="64.029 20.946 62.644 20.946 62.644 19.564 61.897 19.564 61.897 20.946 60.513 20.946 60.513 21.692 61.897 21.692 61.897 23.074 62.644 23.074 62.644 21.692 64.029 21.692 64.029 20.946" style="fill:#2b2416"/><polygon points="65.666 72.076 64.282 72.076 64.282 70.693 63.534 70.693 63.534 72.076 62.15 72.076 62.15 72.822 63.534 72.822 63.534 74.204 64.282 74.204 64.282 72.822 65.666 72.822 65.666 72.076" style="fill:#2b2416"/><polygon points="52.044 97.872 50.66 97.872 50.66 96.49 49.912 96.49 49.912 97.872 48.527 97.872 48.527 98.618 49.912 98.618 49.912 100 50.66 100 50.66 98.618 52.044 98.618 52.044 97.872" style="fill:#2b2416"/><polygon points="47.907 33.928 46.523 33.928 46.523 32.546 45.775 32.546 45.775 33.928 44.391 33.928 44.391 34.674 45.775 34.674 45.775 36.056 46.523 36.056 46.523 34.674 47.907 34.674 47.907 33.928" style="fill:#2b2416"/><circle cx="3.5899" cy="40.26077" r="0.4332" style="fill:#f7d389"/><path d="M6.46972,40.26077a.43356.43356,0,1,1-.43362-.4328A.4335.4335,0,0,1,6.46972,40.26077Z" style="fill:#f7d389"/><circle cx="8.4815" cy="40.26077" r="0.4332" style="fill:#f7d389"/><circle cx="10.9268" cy="40.26077" r="0.4332" style="fill:#f7d389"/><path d="M13.80572,40.26077a.43361.43361,0,1,1-.43362-.4328A.43292.43292,0,0,1,13.80572,40.26077Z" style="fill:#f7d389"/><path d="M16.252,40.26077a.4341.4341,0,1,1-.4336-.4328A.43354.43354,0,0,1,16.252,40.26077Z" style="fill:#f7d389"/><path d="M18.6973,40.26077a.4336.4336,0,1,1-.43358-.4328A.43354.43354,0,0,1,18.6973,40.26077Z" style="fill:#f7d389"/><circle cx="20.709" cy="40.26077" r="0.4332" style="fill:#f7d389"/><path d="M23.5879,40.26077a.43359.43359,0,1,1-.4336-.4328A.43348.43348,0,0,1,23.5879,40.26077Z" style="fill:#f7d389"/><path d="M26.0342,40.26077a.4341.4341,0,1,1-.4346-.4328A.4337.4337,0,0,1,26.0342,40.26077Z" style="fill:#f7d389"/><circle cx="28.0459" cy="40.26077" r="0.4332" style="fill:#f7d389"/><circle cx="30.4912" cy="40.26077" r="0.4332" style="fill:#f7d389"/><path d="M4.0235,37.8199a.4336.4336,0,1,1-.4336-.4332A.43284.43284,0,0,1,4.0235,37.8199Z" style="fill:#f7d389"/><path d="M6.46972,37.8199a.43356.43356,0,1,1-.43362-.4332A.43343.43343,0,0,1,6.46972,37.8199Z" style="fill:#f7d389"/><path d="M8.9151,37.8199a.4336.4336,0,1,1-.4336-.4332A.43347.43347,0,0,1,8.9151,37.8199Z" style="fill:#f7d389"/><path d="M11.3604,37.8199a.4336.4336,0,1,1-.4336-.4332A.43348.43348,0,0,1,11.3604,37.8199Z" style="fill:#f7d389"/><path d="M13.80572,37.8199a.43361.43361,0,1,1-.43362-.4332A.43286.43286,0,0,1,13.80572,37.8199Z" style="fill:#f7d389"/><path d="M16.252,37.8199a.4341.4341,0,1,1-.4336-.4332A.43348.43348,0,0,1,16.252,37.8199Z" style="fill:#f7d389"/><path d="M18.6973,37.8199a.4336.4336,0,1,1-.43358-.4332A.43348.43348,0,0,1,18.6973,37.8199Z" style="fill:#f7d389"/><path d="M21.1426,37.8199a.4336.4336,0,1,1-.4336-.4332A.43342.43342,0,0,1,21.1426,37.8199Z" style="fill:#f7d389"/><path d="M23.5879,37.8199a.43359.43359,0,1,1-.4336-.4332A.43342.43342,0,0,1,23.5879,37.8199Z" style="fill:#f7d389"/><path d="M26.0342,37.8199a.4341.4341,0,1,1-.4346-.4332A.43363.43363,0,0,1,26.0342,37.8199Z" style="fill:#f7d389"/><path d="M28.4795,37.8199a.4336.4336,0,1,1-.4336-.4332A.43342.43342,0,0,1,28.4795,37.8199Z" style="fill:#f7d389"/><path d="M30.9248,37.8199a.4336.4336,0,1,1-.4336-.4332A.43342.43342,0,0,1,30.9248,37.8199Z" style="fill:#f7d389"/><path d="M4.0235,35.37863a.4336.4336,0,1,1-.4336-.4328A.43295.43295,0,0,1,4.0235,35.37863Z" style="fill:#f7d389"/><path d="M6.46972,35.37863a.43356.43356,0,1,1-.43362-.4328A.43354.43354,0,0,1,6.46972,35.37863Z" style="fill:#f7d389"/><path d="M8.9151,35.37863a.4336.4336,0,1,1-.4336-.4328A.43357.43357,0,0,1,8.9151,35.37863Z" style="fill:#f7d389"/><path d="M11.3604,35.37863a.4336.4336,0,1,1-.4336-.4328A.43359.43359,0,0,1,11.3604,35.37863Z" style="fill:#f7d389"/><path d="M13.80572,35.37863a.43361.43361,0,1,1-.43362-.4328A.433.433,0,0,1,13.80572,35.37863Z" style="fill:#f7d389"/><path d="M16.252,35.37863a.4341.4341,0,1,1-.4336-.4328A.43359.43359,0,0,1,16.252,35.37863Z" style="fill:#f7d389"/><path d="M18.6973,35.37863a.4336.4336,0,1,1-.43358-.4328A.43358.43358,0,0,1,18.6973,35.37863Z" style="fill:#f7d389"/><path d="M21.1426,35.37863a.4336.4336,0,1,1-.4336-.4328A.43352.43352,0,0,1,21.1426,35.37863Z" style="fill:#f7d389"/><path d="M23.5879,35.37863a.43359.43359,0,1,1-.4336-.4328A.43352.43352,0,0,1,23.5879,35.37863Z" style="fill:#f7d389"/><path d="M26.0342,35.37863a.4341.4341,0,1,1-.4346-.4328A.43374.43374,0,0,1,26.0342,35.37863Z" style="fill:#f7d389"/><path d="M28.4795,35.37863a.4336.4336,0,1,1-.4336-.4328A.43352.43352,0,0,1,28.4795,35.37863Z" style="fill:#f7d389"/><path d="M30.9248,35.37863a.4336.4336,0,1,1-.4336-.4328A.43352.43352,0,0,1,30.9248,35.37863Z" style="fill:#f7d389"/><circle cx="3.5899" cy="32.93786" r="0.4332" style="fill:#f7d389"/><path d="M6.46972,32.93786a.43356.43356,0,1,1-.43362-.4328A.43311.43311,0,0,1,6.46972,32.93786Z" style="fill:#f7d389"/><circle cx="8.4815" cy="32.93786" r="0.4332" style="fill:#f7d389"/><circle cx="10.9268" cy="32.93786" r="0.4332" style="fill:#f7d389"/><path d="M13.80572,32.93786a.43361.43361,0,1,1-.43362-.4328A.43254.43254,0,0,1,13.80572,32.93786Z" style="fill:#f7d389"/><path d="M16.252,32.93786a.4341.4341,0,1,1-.4336-.4328A.43316.43316,0,0,1,16.252,32.93786Z" style="fill:#f7d389"/><path d="M18.6973,32.93786a.4336.4336,0,1,1-.43358-.4328A.43316.43316,0,0,1,18.6973,32.93786Z" style="fill:#f7d389"/><circle cx="20.709" cy="32.93786" r="0.4332" style="fill:#f7d389"/><path d="M23.5879,32.93786a.43359.43359,0,1,1-.4336-.4328A.4331.4331,0,0,1,23.5879,32.93786Z" style="fill:#f7d389"/><path d="M26.0342,32.93786a.4341.4341,0,1,1-.4346-.4328A.43331.43331,0,0,1,26.0342,32.93786Z" style="fill:#f7d389"/><circle cx="28.0459" cy="32.93786" r="0.4332" style="fill:#f7d389"/><circle cx="30.4912" cy="32.93786" r="0.4332" style="fill:#f7d389"/><circle cx="3.5899" cy="30.49709" r="0.4332" style="fill:#f7d389"/><path d="M6.46972,30.49709a.43356.43356,0,1,1-.43362-.4328A.43311.43311,0,0,1,6.46972,30.49709Z" style="fill:#f7d389"/><circle cx="8.4815" cy="30.49709" r="0.4332" style="fill:#f7d389"/><circle cx="10.9268" cy="30.49709" r="0.4332" style="fill:#f7d389"/><path d="M13.80572,30.49709a.43361.43361,0,1,1-.43362-.4328A.43254.43254,0,0,1,13.80572,30.49709Z" style="fill:#f7d389"/><path d="M16.252,30.49709a.4341.4341,0,1,1-.4336-.4328A.43316.43316,0,0,1,16.252,30.49709Z" style="fill:#f7d389"/><path d="M18.6973,30.49709a.4336.4336,0,1,1-.43358-.4328A.43316.43316,0,0,1,18.6973,30.49709Z" style="fill:#f7d389"/><circle cx="20.709" cy="30.49709" r="0.4332" style="fill:#f7d389"/><path d="M23.5879,30.49709a.43359.43359,0,1,1-.4336-.4328A.4331.4331,0,0,1,23.5879,30.49709Z" style="fill:#f7d389"/><path d="M26.0342,30.49709a.4341.4341,0,1,1-.4346-.4328A.43331.43331,0,0,1,26.0342,30.49709Z" style="fill:#f7d389"/><circle cx="28.0459" cy="30.49709" r="0.4332" style="fill:#f7d389"/><circle cx="30.4912" cy="30.49709" r="0.4332" style="fill:#f7d389"/><circle cx="3.5899" cy="28.05632" r="0.4332" style="fill:#f7d389"/><path d="M6.46972,28.05632a.43356.43356,0,1,1-.43362-.4328A.43343.43343,0,0,1,6.46972,28.05632Z" style="fill:#f7d389"/><circle cx="8.4815" cy="28.05632" r="0.4332" style="fill:#f7d389"/><circle cx="10.9268" cy="28.05632" r="0.4332" style="fill:#f7d389"/><path d="M13.80572,28.05632a.43361.43361,0,1,1-.43362-.4328A.43286.43286,0,0,1,13.80572,28.05632Z" style="fill:#f7d389"/><path d="M16.252,28.05632a.4341.4341,0,1,1-.4336-.4328A.43348.43348,0,0,1,16.252,28.05632Z" style="fill:#f7d389"/><path d="M18.6973,28.05632a.4336.4336,0,1,1-.43358-.4328A.43348.43348,0,0,1,18.6973,28.05632Z" style="fill:#f7d389"/><circle cx="20.709" cy="28.05632" r="0.4332" style="fill:#f7d389"/><path d="M23.5879,28.05632a.43359.43359,0,1,1-.4336-.4328A.43342.43342,0,0,1,23.5879,28.05632Z" style="fill:#f7d389"/><path d="M26.0342,28.05632a.4341.4341,0,1,1-.4346-.4328A.43363.43363,0,0,1,26.0342,28.05632Z" style="fill:#f7d389"/><circle cx="28.0459" cy="28.05632" r="0.4332" style="fill:#f7d389"/><circle cx="30.4912" cy="28.05632" r="0.4332" style="fill:#f7d389"/><path d="M4.0235,25.61555a.4336.4336,0,1,1-.4336-.4333A.43284.43284,0,0,1,4.0235,25.61555Z" style="fill:#f7d389"/><path d="M6.46972,25.61555a.43356.43356,0,1,1-.43362-.4333A.43343.43343,0,0,1,6.46972,25.61555Z" style="fill:#f7d389"/><path d="M8.9151,25.61555a.4336.4336,0,1,1-.4336-.4333A.43347.43347,0,0,1,8.9151,25.61555Z" style="fill:#f7d389"/><path d="M11.3604,25.61555a.4336.4336,0,1,1-.4336-.4333A.43348.43348,0,0,1,11.3604,25.61555Z" style="fill:#f7d389"/><path d="M13.80572,25.61555a.43361.43361,0,1,1-.43362-.4333A.43286.43286,0,0,1,13.80572,25.61555Z" style="fill:#f7d389"/><path d="M16.252,25.61555a.4341.4341,0,1,1-.4336-.4333A.43348.43348,0,0,1,16.252,25.61555Z" style="fill:#f7d389"/><path d="M18.6973,25.61555a.4336.4336,0,1,1-.43358-.4333A.43348.43348,0,0,1,18.6973,25.61555Z" style="fill:#f7d389"/><path d="M21.1426,25.61555a.4336.4336,0,1,1-.4336-.4333A.43342.43342,0,0,1,21.1426,25.61555Z" style="fill:#f7d389"/><path d="M23.5879,25.61555a.43359.43359,0,1,1-.4336-.4333A.43342.43342,0,0,1,23.5879,25.61555Z" style="fill:#f7d389"/><path d="M26.0342,25.61555a.4341.4341,0,1,1-.4346-.4333A.43363.43363,0,0,1,26.0342,25.61555Z" style="fill:#f7d389"/><path d="M28.4795,25.61555a.4336.4336,0,1,1-.4336-.4333A.43342.43342,0,0,1,28.4795,25.61555Z" style="fill:#f7d389"/><path d="M30.9248,25.61555a.4336.4336,0,1,1-.4336-.4333A.43342.43342,0,0,1,30.9248,25.61555Z" style="fill:#f7d389"/><path d="M4.0235,23.17428a.4336.4336,0,1,1-.4336-.4328A.433.433,0,0,1,4.0235,23.17428Z" style="fill:#f7d389"/><path d="M6.46972,23.17428a.43356.43356,0,1,1-.43362-.4328A.4336.4336,0,0,1,6.46972,23.17428Z" style="fill:#f7d389"/><path d="M8.9151,23.17428a.4336.4336,0,1,1-.4336-.4328A.43364.43364,0,0,1,8.9151,23.17428Z" style="fill:#f7d389"/><path d="M11.3604,23.17428a.4336.4336,0,1,1-.4336-.4328A.43365.43365,0,0,1,11.3604,23.17428Z" style="fill:#f7d389"/><path d="M13.80572,23.17428a.43361.43361,0,1,1-.43362-.4328A.433.433,0,0,1,13.80572,23.17428Z" style="fill:#f7d389"/><path d="M16.252,23.17428a.4341.4341,0,1,1-.4336-.4328A.43365.43365,0,0,1,16.252,23.17428Z" style="fill:#f7d389"/><path d="M18.6973,23.17428a.4336.4336,0,1,1-.43358-.4328A.43365.43365,0,0,1,18.6973,23.17428Z" style="fill:#f7d389"/><path d="M21.1426,23.17428a.4336.4336,0,1,1-.4336-.4328A.43359.43359,0,0,1,21.1426,23.17428Z" style="fill:#f7d389"/><path d="M23.5879,23.17428a.43359.43359,0,1,1-.4336-.4328A.43359.43359,0,0,1,23.5879,23.17428Z" style="fill:#f7d389"/><path d="M26.0342,23.17428a.4341.4341,0,1,1-.4346-.4328A.4338.4338,0,0,1,26.0342,23.17428Z" style="fill:#f7d389"/><path d="M28.4795,23.17428a.4336.4336,0,1,1-.4336-.4328A.43359.43359,0,0,1,28.4795,23.17428Z" style="fill:#f7d389"/><path d="M30.9248,23.17428a.4336.4336,0,1,1-.4336-.4328A.43359.43359,0,0,1,30.9248,23.17428Z" style="fill:#f7d389"/><circle cx="3.5899" cy="20.73351" r="0.4332" style="fill:#f7d389"/><path d="M6.46972,20.73351a.43356.43356,0,1,1-.43362-.4328A.43319.43319,0,0,1,6.46972,20.73351Z" style="fill:#f7d389"/><circle cx="8.4815" cy="20.73351" r="0.4332" style="fill:#f7d389"/><circle cx="10.9268" cy="20.73351" r="0.4332" style="fill:#f7d389"/><path d="M13.80572,20.73351a.43361.43361,0,1,1-.43362-.4328A.43261.43261,0,0,1,13.80572,20.73351Z" style="fill:#f7d389"/><path d="M16.252,20.73351a.4341.4341,0,1,1-.4336-.4328A.43323.43323,0,0,1,16.252,20.73351Z" style="fill:#f7d389"/><path d="M18.6973,20.73351a.4336.4336,0,1,1-.43358-.4328A.43323.43323,0,0,1,18.6973,20.73351Z" style="fill:#f7d389"/><circle cx="20.709" cy="20.73351" r="0.4332" style="fill:#f7d389"/><path d="M23.5879,20.73351a.43359.43359,0,1,1-.4336-.4328A.43317.43317,0,0,1,23.5879,20.73351Z" style="fill:#f7d389"/><path d="M26.0342,20.73351a.4341.4341,0,1,1-.4346-.4328A.43338.43338,0,0,1,26.0342,20.73351Z" style="fill:#f7d389"/><circle cx="28.0459" cy="20.73351" r="0.4332" style="fill:#f7d389"/><circle cx="30.4912" cy="20.73351" r="0.4332" style="fill:#f7d389"/><circle cx="3.5899" cy="18.29274" r="0.4332" style="fill:#f7d389"/><path d="M6.46972,18.29274a.43356.43356,0,1,1-.43362-.4328A.43319.43319,0,0,1,6.46972,18.29274Z" style="fill:#f7d389"/><circle cx="8.4815" cy="18.29274" r="0.4332" style="fill:#f7d389"/><circle cx="10.9268" cy="18.29274" r="0.4332" style="fill:#f7d389"/><path d="M13.80572,18.29274a.43361.43361,0,1,1-.43362-.4328A.43261.43261,0,0,1,13.80572,18.29274Z" style="fill:#f7d389"/><path d="M16.252,18.29274a.4341.4341,0,1,1-.4336-.4328A.43323.43323,0,0,1,16.252,18.29274Z" style="fill:#f7d389"/><path d="M18.6973,18.29274a.4336.4336,0,1,1-.43358-.4328A.43323.43323,0,0,1,18.6973,18.29274Z" style="fill:#f7d389"/><circle cx="20.709" cy="18.29274" r="0.4332" style="fill:#f7d389"/><path d="M23.5879,18.29274a.43359.43359,0,1,1-.4336-.4328A.43317.43317,0,0,1,23.5879,18.29274Z" style="fill:#f7d389"/><path d="M26.0342,18.29274a.4341.4341,0,1,1-.4346-.4328A.43338.43338,0,0,1,26.0342,18.29274Z" style="fill:#f7d389"/><circle cx="28.0459" cy="18.29274" r="0.4332" style="fill:#f7d389"/><circle cx="30.4912" cy="18.29274" r="0.4332" style="fill:#f7d389"/><path d="M4.0235,15.852a.4336.4336,0,1,1-.4336-.4328A.43282.43282,0,0,1,4.0235,15.852Z" style="fill:#f7d389"/><path d="M6.46972,15.852a.43356.43356,0,1,1-.43362-.4328A.43341.43341,0,0,1,6.46972,15.852Z" style="fill:#f7d389"/><path d="M8.9151,15.852a.4336.4336,0,1,1-.4336-.4328A.43345.43345,0,0,1,8.9151,15.852Z" style="fill:#f7d389"/><path d="M11.3604,15.852a.4336.4336,0,1,1-.4336-.4328A.43346.43346,0,0,1,11.3604,15.852Z" style="fill:#f7d389"/><path d="M13.80572,15.852a.43361.43361,0,1,1-.43362-.4328A.43284.43284,0,0,1,13.80572,15.852Z" style="fill:#f7d389"/><path d="M16.252,15.852a.4341.4341,0,1,1-.4336-.4328A.43346.43346,0,0,1,16.252,15.852Z" style="fill:#f7d389"/><path d="M18.6973,15.852a.4336.4336,0,1,1-.43358-.4328A.43346.43346,0,0,1,18.6973,15.852Z" style="fill:#f7d389"/><path d="M21.1426,15.852a.4336.4336,0,1,1-.4336-.4328A.4334.4334,0,0,1,21.1426,15.852Z" style="fill:#f7d389"/><path d="M23.5879,15.852a.43359.43359,0,1,1-.4336-.4328A.4334.4334,0,0,1,23.5879,15.852Z" style="fill:#f7d389"/><path d="M26.0342,15.852a.4341.4341,0,1,1-.4346-.4328A.43361.43361,0,0,1,26.0342,15.852Z" style="fill:#f7d389"/><path d="M28.4795,15.852a.4336.4336,0,1,1-.4336-.4328A.4334.4334,0,0,1,28.4795,15.852Z" style="fill:#f7d389"/><path d="M30.9248,15.852a.4336.4336,0,1,1-.4336-.4328A.4334.4334,0,0,1,30.9248,15.852Z" style="fill:#f7d389"/><path d="M4.0235,13.4107a.4336.4336,0,1,1-.4336-.4328A.43293.43293,0,0,1,4.0235,13.4107Z" style="fill:#f7d389"/><path d="M6.46972,13.4107a.43356.43356,0,1,1-.43362-.4328A.43352.43352,0,0,1,6.46972,13.4107Z" style="fill:#f7d389"/><path d="M8.9151,13.4107a.4336.4336,0,1,1-.4336-.4328A.43355.43355,0,0,1,8.9151,13.4107Z" style="fill:#f7d389"/><path d="M11.3604,13.4107a.4336.4336,0,1,1-.4336-.4328A.43357.43357,0,0,1,11.3604,13.4107Z" style="fill:#f7d389"/><path d="M13.80572,13.4107a.43361.43361,0,1,1-.43362-.4328A.43294.43294,0,0,1,13.80572,13.4107Z" style="fill:#f7d389"/><path d="M16.252,13.4107a.4341.4341,0,1,1-.4336-.4328A.43357.43357,0,0,1,16.252,13.4107Z" style="fill:#f7d389"/><path d="M18.6973,13.4107a.4336.4336,0,1,1-.43358-.4328A.43356.43356,0,0,1,18.6973,13.4107Z" style="fill:#f7d389"/><path d="M21.1426,13.4107a.4336.4336,0,1,1-.4336-.4328A.4335.4335,0,0,1,21.1426,13.4107Z" style="fill:#f7d389"/><path d="M23.5879,13.4107a.43359.43359,0,1,1-.4336-.4328A.4335.4335,0,0,1,23.5879,13.4107Z" style="fill:#f7d389"/><path d="M26.0342,13.4107a.4341.4341,0,1,1-.4346-.4328A.43372.43372,0,0,1,26.0342,13.4107Z" style="fill:#f7d389"/><path d="M28.4795,13.4107a.4336.4336,0,1,1-.4336-.4328A.4335.4335,0,0,1,28.4795,13.4107Z" style="fill:#f7d389"/><path d="M30.9248,13.4107a.4336.4336,0,1,1-.4336-.4328A.4335.4335,0,0,1,30.9248,13.4107Z" style="fill:#f7d389"/><polygon points="46.149 75.573 48.228 76.771 48.228 75.573 46.149 75.573" style="fill:#2b2416"/><polygon points="48.228 73.382 42.348 73.382 44.426 74.579 48.228 74.579 48.228 73.382" style="fill:#2b2416"/><polygon points="48.228 71.191 38.545 71.191 40.624 72.389 48.228 72.389 48.228 71.191" style="fill:#2b2416"/><polygon points="48.228 53.663 44.426 53.663 42.348 54.861 48.228 54.861 48.228 53.663" style="fill:#2b2416"/><polygon points="48.228 55.854 40.624 55.854 38.545 57.051 48.228 57.051 48.228 55.854" style="fill:#2b2416"/><polygon points="48.228 69 34.743 69 36.822 70.197 48.228 70.197 48.228 69" style="fill:#2b2416"/><polygon points="48.228 60.236 33.02 60.236 30.941 61.433 48.228 61.433 48.228 60.236" style="fill:#2b2416"/><polygon points="48.228 51.472 46.149 52.669 48.228 52.669 48.228 51.472" style="fill:#2b2416"/><polygon points="48.228 58.045 36.822 58.045 34.743 59.243 48.228 59.243 48.228 58.045" style="fill:#2b2416"/><polygon points="48.228 66.809 30.941 66.809 33.02 68.007 48.228 68.007 48.228 66.809" style="fill:#2b2416"/><polygon points="48.228 62.427 29.218 62.427 27.14 63.625 48.228 63.625 48.228 62.427" style="fill:#2b2416"/><polygon points="48.228 64.618 27.14 64.618 29.218 65.815 48.228 65.815 48.228 64.618" style="fill:#2b2416"/><polygon points="77.957 30.129 77.309 31.251 77.957 31.251 77.957 30.129" style="fill:#aee2e6"/><polygon points="79.144 31.251 79.144 28.076 78.495 29.198 78.495 31.251 79.144 31.251" style="fill:#aee2e6"/><polygon points="80.332 31.251 80.332 26.024 79.683 27.146 79.683 31.251 80.332 31.251" style="fill:#aee2e6"/><polygon points="89.83 31.251 89.83 29.198 89.181 28.076 89.181 31.251 89.83 31.251" style="fill:#aee2e6"/><polygon points="88.643 31.251 88.643 27.146 87.993 26.024 87.993 31.251 88.643 31.251" style="fill:#aee2e6"/><polygon points="81.519 31.251 81.519 23.971 80.87 25.093 80.87 31.251 81.519 31.251" style="fill:#aee2e6"/><polygon points="86.268 31.251 86.268 23.041 85.619 21.919 85.619 31.251 86.268 31.251" style="fill:#aee2e6"/><polygon points="91.017 31.251 90.368 30.129 90.368 31.251 91.017 31.251" style="fill:#aee2e6"/><polygon points="87.455 31.251 87.455 25.093 86.806 23.971 86.806 31.251 87.455 31.251" style="fill:#aee2e6"/><polygon points="82.706 31.251 82.706 21.919 82.057 23.041 82.057 31.251 82.706 31.251" style="fill:#aee2e6"/><polygon points="85.081 31.251 85.081 20.988 84.432 19.866 84.432 31.251 85.081 31.251" style="fill:#aee2e6"/><polygon points="83.894 31.251 83.894 19.866 83.244 20.988 83.244 31.251 83.894 31.251" style="fill:#aee2e6"/><polygon points="5.041 78.906 3.656 78.906 3.656 77.524 2.909 77.524 2.909 78.906 1.524 78.906 1.524 79.652 2.909 79.652 2.909 81.034 3.656 81.034 3.656 79.652 5.041 79.652 5.041 78.906" style="fill:#2b2416"/><polygon points="16.486 26.054 13.261 22.834 13.676 22.42 16.693 25.432 19.696 22.42 20.112 22.833 16.902 26.053 16.486 26.054" style="fill:#2b2416"/><polygon points="16.486 21.641 13.261 18.421 13.676 18.008 16.693 21.02 19.696 18.008 20.112 18.42 16.902 21.641 16.486 21.641" style="fill:#2b2416"/><polygon points="16.486 17.229 13.261 14.009 13.676 13.595 16.693 16.607 19.696 13.595 20.112 14.008 16.902 17.228 16.486 17.229" style="fill:#2b2416"/><polygon points="6.162 22.701 4.778 22.701 4.778 21.319 4.03 21.319 4.03 22.701 2.647 22.701 2.647 23.447 4.03 23.447 4.03 24.829 4.778 24.829 4.778 23.447 6.162 23.447 6.162 22.701" style="fill:#2b2416"/><g style="clip-path:url(#ef267867-7eb1-4bcf-9944-67af5a014070)"><polygon points="101.528 30.888 109.106 30.888 105.317 37.439 101.528 43.989 97.739 37.439 93.95 30.888 101.528 30.888" style="fill:#aee2e6"/><polygon points="1.528 30.888 9.107 30.888 5.317 37.439 1.528 43.989 -2.261 37.439 -6.05 30.888 1.528 30.888" style="fill:#aee2e6"/><path d="M33.8604,104.40971a6.35806,6.35806,0,1,1,6.3701-6.3583A6.37095,6.37095,0,0,1,33.8604,104.40971Zm0-12.0177a5.6594,5.6594,0,1,0,5.6699,5.6594A5.67166,5.67166,0,0,0,33.8604,92.392Z" style="fill:#f7d389"/><path d="M28.63672,106.4606a4.39445,4.39445,0,1,1,4.40238-4.39415A4.4032,4.4032,0,0,1,28.63672,106.4606Zm0-8.09a3.69555,3.69555,0,1,0,3.70318,3.69584A3.70352,3.70352,0,0,0,28.63672,98.37061Z" style="fill:#2b2416"/><path d="M33.8604,4.595a6.37094,6.37094,0,0,1-6.3692-6.3583,6.37084,6.37084,0,0,1,6.3692-6.3578,6.371,6.371,0,0,1,6.3701,6.3578A6.37114,6.37114,0,0,1,33.8604,4.595Zm0-12.01769a5.67166,5.67166,0,0,0-5.67,5.65939,5.67134,5.67134,0,0,0,5.67,5.6594,5.67068,5.67068,0,0,0,5.6699-5.6594A5.671,5.671,0,0,0,33.8604-7.42273Z" style="fill:#f7d389"/><path d="M28.63672,6.64586A4.39445,4.39445,0,1,1,33.0391,2.25171,4.4032,4.4032,0,0,1,28.63672,6.64586Zm0-8.09A3.69555,3.69555,0,1,0,32.3399,2.25171,3.70351,3.70351,0,0,0,28.63672-1.44413Z" style="fill:#2b2416"/><path d="M57.1719,100.04431a.35335.35335,0,1,0,0-.70669l-.0078.0005q-.129.29674-.2422.60238A.352.352,0,0,0,57.1719,100.04431Z" style="fill:#aee2e6"/><circle cx="59.169" cy="99.69096" r="0.35392" style="fill:#aee2e6"/><path d="M61.166,99.33762a.35335.35335,0,1,0,.3535.35334A.35374.35374,0,0,0,61.166,99.33762Z" style="fill:#aee2e6"/><path d="M63.1621,99.33762a.35335.35335,0,1,0,.3545.35334A.35351.35351,0,0,0,63.1621,99.33762Z" style="fill:#aee2e6"/><path d="M65.1592,99.33762a.35335.35335,0,1,0,.35352.35334A.35371.35371,0,0,0,65.1592,99.33762Z" style="fill:#aee2e6"/><circle cx="67.1553" cy="99.69096" r="0.35392" style="fill:#aee2e6"/><path d="M69.1524,99.33762a.35335.35335,0,1,0,.3535.35334A.35373.35373,0,0,0,69.1524,99.33762Z" style="fill:#aee2e6"/><path d="M71.1485,99.33762a.35335.35335,0,1,0,.3544.35334A.35354.35354,0,0,0,71.1485,99.33762Z" style="fill:#aee2e6"/><path d="M73.1455,99.33762a.35335.35335,0,1,0,.3535.35334A.35373.35373,0,0,0,73.1455,99.33762Z" style="fill:#aee2e6"/><circle cx="75.1416" cy="99.69096" r="0.35392" style="fill:#aee2e6"/><path d="M76.7842,99.691a.35406.35406,0,0,0,.60452.24954c-.07422-.20372-.15632-.40455-.24222-.60238l-.00778-.0005A.35373.35373,0,0,0,76.7842,99.691Z" style="fill:#aee2e6"/><circle cx="59.169" cy="97.69806" r="0.35392" style="fill:#aee2e6"/><path d="M61.166,97.34472a.35335.35335,0,1,0,.3535.35334A.35374.35374,0,0,0,61.166,97.34472Z" style="fill:#aee2e6"/><path d="M63.1621,97.34472a.35335.35335,0,1,0,.3545.35334A.35351.35351,0,0,0,63.1621,97.34472Z" style="fill:#aee2e6"/><path d="M65.1592,97.34472a.35335.35335,0,1,0,.35352.35334A.35371.35371,0,0,0,65.1592,97.34472Z" style="fill:#aee2e6"/><circle cx="67.1553" cy="97.69806" r="0.35392" style="fill:#aee2e6"/><path d="M69.1524,97.34472a.35335.35335,0,1,0,.3535.35334A.35372.35372,0,0,0,69.1524,97.34472Z" style="fill:#aee2e6"/><path d="M71.1485,97.34472a.35335.35335,0,1,0,.3544.35334A.35353.35353,0,0,0,71.1485,97.34472Z" style="fill:#aee2e6"/><path d="M73.1455,97.34472a.35335.35335,0,1,0,.3535.35334A.35372.35372,0,0,0,73.1455,97.34472Z" style="fill:#aee2e6"/><circle cx="75.1416" cy="97.69806" r="0.35392" style="fill:#aee2e6"/><path d="M61.166,95.35182a.35359.35359,0,1,0,.3535.35334A.35374.35374,0,0,0,61.166,95.35182Z" style="fill:#aee2e6"/><path d="M63.1621,95.35182a.35359.35359,0,1,0,.3545.35334A.35351.35351,0,0,0,63.1621,95.35182Z" style="fill:#aee2e6"/><path d="M65.1592,95.35182a.35359.35359,0,1,0,.35352.35334A.35371.35371,0,0,0,65.1592,95.35182Z" style="fill:#aee2e6"/><path d="M67.1553,95.35182a.35359.35359,0,1,0,.3545.35334A.35436.35436,0,0,0,67.1553,95.35182Z" style="fill:#aee2e6"/><path d="M69.1524,95.35182a.35359.35359,0,1,0,.3535.35334A.35372.35372,0,0,0,69.1524,95.35182Z" style="fill:#aee2e6"/><path d="M71.1485,95.35182a.35359.35359,0,1,0,.3544.35334A.35353.35353,0,0,0,71.1485,95.35182Z" style="fill:#aee2e6"/><path d="M73.1455,95.35182a.35359.35359,0,1,0,.3535.35334A.35372.35372,0,0,0,73.1455,95.35182Z" style="fill:#aee2e6"/><path d="M63.1621,94.0661a.353.353,0,0,0,.25-.60378c-.2041.07457-.4053.15591-.6035.24215v.00829A.35351.35351,0,0,0,63.1621,94.0661Z" style="fill:#aee2e6"/><path d="M65.1592,93.35892a.35359.35359,0,1,0,.35352.35384A.35381.35381,0,0,0,65.1592,93.35892Z" style="fill:#aee2e6"/><path d="M67.1553,93.35892a.35359.35359,0,1,0,.3545.35384A.35447.35447,0,0,0,67.1553,93.35892Z" style="fill:#aee2e6"/><path d="M69.1524,93.35892a.35359.35359,0,1,0,.3535.35384A.35383.35383,0,0,0,69.1524,93.35892Z" style="fill:#aee2e6"/><path d="M70.7949,93.71276a.354.354,0,0,0,.708,0L71.502,93.704c-.19828-.08575-.3994-.16709-.6035-.24166A.35054.35054,0,0,0,70.7949,93.71276Z" style="fill:#aee2e6"/><path d="M63.5166,13.82593a.354.354,0,0,0-.708,0v.00778q.2973.13011.6035.24225A.35138.35138,0,0,0,63.5166,13.82593Z" style="fill:#aee2e6"/><path d="M65.1592,13.47209a.35359.35359,0,1,0,.35352.35384A.35381.35381,0,0,0,65.1592,13.47209Z" style="fill:#aee2e6"/><path d="M67.1553,13.47209a.35359.35359,0,1,0,.3545.35384A.35447.35447,0,0,0,67.1553,13.47209Z" style="fill:#aee2e6"/><path d="M69.1524,13.47209a.35359.35359,0,1,0,.3535.35384A.35383.35383,0,0,0,69.1524,13.47209Z" style="fill:#aee2e6"/><path d="M71.1485,13.47209a.35374.35374,0,0,0-.25.60387q.30615-.11184.6035-.24175l.0009-.00828A.35438.35438,0,0,0,71.1485,13.47209Z" style="fill:#aee2e6"/><path d="M61.166,11.47968a.35335.35335,0,1,0,.3535.35335A.35343.35343,0,0,0,61.166,11.47968Z" style="fill:#aee2e6"/><path d="M63.1621,11.47968a.35335.35335,0,1,0,.3545.35335A.3532.3532,0,0,0,63.1621,11.47968Z" style="fill:#aee2e6"/><path d="M65.1592,11.47968a.35335.35335,0,1,0,.35352.35335A.3534.3534,0,0,0,65.1592,11.47968Z" style="fill:#aee2e6"/><circle cx="67.1553" cy="11.83303" r="0.35392" style="fill:#aee2e6"/><path d="M69.1524,11.47968a.35335.35335,0,1,0,.3535.35335A.35341.35341,0,0,0,69.1524,11.47968Z" style="fill:#aee2e6"/><path d="M71.1485,11.47968a.35335.35335,0,1,0,.3544.35335A.35322.35322,0,0,0,71.1485,11.47968Z" style="fill:#aee2e6"/><path d="M73.1455,11.47968a.35335.35335,0,1,0,.3535.35335A.35341.35341,0,0,0,73.1455,11.47968Z" style="fill:#aee2e6"/><circle cx="59.169" cy="9.84013" r="0.35392" style="fill:#aee2e6"/><path d="M61.166,9.48678a.35335.35335,0,1,0,.3535.35335A.35374.35374,0,0,0,61.166,9.48678Z" style="fill:#aee2e6"/><path d="M63.1621,9.48678a.35335.35335,0,1,0,.3545.35335A.35352.35352,0,0,0,63.1621,9.48678Z" style="fill:#aee2e6"/><path d="M65.1592,9.48678a.35335.35335,0,1,0,.35352.35335A.35371.35371,0,0,0,65.1592,9.48678Z" style="fill:#aee2e6"/><circle cx="67.1553" cy="9.84013" r="0.35392" style="fill:#aee2e6"/><path d="M69.1524,9.48678a.35335.35335,0,1,0,.3535.35335A.35373.35373,0,0,0,69.1524,9.48678Z" style="fill:#aee2e6"/><path d="M71.1485,9.48678a.35335.35335,0,1,0,.3544.35335A.35354.35354,0,0,0,71.1485,9.48678Z" style="fill:#aee2e6"/><path d="M73.1455,9.48678a.35335.35335,0,1,0,.3535.35335A.35373.35373,0,0,0,73.1455,9.48678Z" style="fill:#aee2e6"/><circle cx="75.1416" cy="9.84013" r="0.35392" style="fill:#aee2e6"/><path d="M57.5264,7.84723a.354.354,0,0,0-.6045-.24954q.1128.30558.2422.60288h.0078A.35341.35341,0,0,0,57.5264,7.84723Z" style="fill:#aee2e6"/><circle cx="59.169" cy="7.84723" r="0.35392" style="fill:#aee2e6"/><path d="M61.166,7.49388a.35335.35335,0,1,0,.3535.35335A.35374.35374,0,0,0,61.166,7.49388Z" style="fill:#aee2e6"/><path d="M63.1621,7.49388a.35335.35335,0,1,0,.3545.35335A.35352.35352,0,0,0,63.1621,7.49388Z" style="fill:#aee2e6"/><path d="M65.1592,7.49388a.35335.35335,0,1,0,.35352.35335A.35371.35371,0,0,0,65.1592,7.49388Z" style="fill:#aee2e6"/><circle cx="67.1553" cy="7.84723" r="0.35392" style="fill:#aee2e6"/><path d="M69.1524,7.49388a.35335.35335,0,1,0,.3535.35335A.35373.35373,0,0,0,69.1524,7.49388Z" style="fill:#aee2e6"/><path d="M71.1485,7.49388a.35335.35335,0,1,0,.3544.35335A.35354.35354,0,0,0,71.1485,7.49388Z" style="fill:#aee2e6"/><path d="M73.1455,7.49388a.35335.35335,0,1,0,.3535.35335A.35373.35373,0,0,0,73.1455,7.49388Z" style="fill:#aee2e6"/><circle cx="75.1416" cy="7.84723" r="0.35392" style="fill:#aee2e6"/><path d="M77.13872,7.49388a.35335.35335,0,1,0,0,.70669h.00778c.0859-.19833.168-.39916.24222-.60288A.35246.35246,0,0,0,77.13872,7.49388Z" style="fill:#aee2e6"/><path d="M57.1719,5.501a.3536.3536,0,1,0,.3545.35334A.35351.35351,0,0,0,57.1719,5.501Z" style="fill:#aee2e6"/><path d="M59.169,5.501a.3536.3536,0,1,0,.3545.35334A.35431.35431,0,0,0,59.169,5.501Z" style="fill:#aee2e6"/><path d="M61.166,5.501a.3536.3536,0,1,0,.3535.35334A.35374.35374,0,0,0,61.166,5.501Z" style="fill:#aee2e6"/><path d="M63.1621,5.501a.3536.3536,0,1,0,.3545.35334A.35351.35351,0,0,0,63.1621,5.501Z" style="fill:#aee2e6"/><path d="M65.1592,5.501a.3536.3536,0,1,0,.35352.35334A.35371.35371,0,0,0,65.1592,5.501Z" style="fill:#aee2e6"/><path d="M67.1553,5.501a.3536.3536,0,1,0,.3545.35334A.35437.35437,0,0,0,67.1553,5.501Z" style="fill:#aee2e6"/><path d="M69.1524,5.501a.3536.3536,0,1,0,.3535.35334A.35373.35373,0,0,0,69.1524,5.501Z" style="fill:#aee2e6"/><path d="M71.1485,5.501a.3536.3536,0,1,0,.3544.35334A.35354.35354,0,0,0,71.1485,5.501Z" style="fill:#aee2e6"/><path d="M73.1455,5.501a.3536.3536,0,1,0,.3535.35334A.35373.35373,0,0,0,73.1455,5.501Z" style="fill:#aee2e6"/><path d="M75.1416,5.501a.3536.3536,0,1,0,.3545.35334A.35437.35437,0,0,0,75.1416,5.501Z" style="fill:#aee2e6"/><path d="M77.13872,5.501a.3536.3536,0,1,0,.35348.35334A.35373.35373,0,0,0,77.13872,5.501Z" style="fill:#aee2e6"/><path d="M57.1719,3.50818a.3536.3536,0,1,0,.3545.35374A.35353.35353,0,0,0,57.1719,3.50818Z" style="fill:#aee2e6"/><path d="M59.169,3.50818a.3536.3536,0,1,0,.3545.35374A.35432.35432,0,0,0,59.169,3.50818Z" style="fill:#aee2e6"/><path d="M61.166,3.50818a.3536.3536,0,1,0,.3535.35374A.35376.35376,0,0,0,61.166,3.50818Z" style="fill:#aee2e6"/><path d="M63.1621,3.50818a.3536.3536,0,1,0,.3545.35374A.35353.35353,0,0,0,63.1621,3.50818Z" style="fill:#aee2e6"/><path d="M65.1592,3.50818a.3536.3536,0,1,0,.35352.35374A.35373.35373,0,0,0,65.1592,3.50818Z" style="fill:#aee2e6"/><path d="M67.1553,3.50818a.3536.3536,0,1,0,.3545.35374A.35438.35438,0,0,0,67.1553,3.50818Z" style="fill:#aee2e6"/><path d="M69.1524,3.50818a.3536.3536,0,1,0,.3535.35374A.35374.35374,0,0,0,69.1524,3.50818Z" style="fill:#aee2e6"/><path d="M71.1485,3.50818a.3536.3536,0,1,0,.3544.35374A.35355.35355,0,0,0,71.1485,3.50818Z" style="fill:#aee2e6"/><path d="M73.1455,3.50818a.3536.3536,0,1,0,.3535.35374A.35374.35374,0,0,0,73.1455,3.50818Z" style="fill:#aee2e6"/><path d="M75.1416,3.50818a.3536.3536,0,1,0,.3545.35374A.35438.35438,0,0,0,75.1416,3.50818Z" style="fill:#aee2e6"/><path d="M77.13872,3.50818a.3536.3536,0,1,0,.35348.35374A.35375.35375,0,0,0,77.13872,3.50818Z" style="fill:#aee2e6"/><path d="M57.1719,1.51578a.35335.35335,0,1,0,.3545.35334A.35319.35319,0,0,0,57.1719,1.51578Z" style="fill:#aee2e6"/><circle cx="59.169" cy="1.86912" r="0.35392" style="fill:#aee2e6"/><path d="M61.166,1.51578a.35335.35335,0,1,0,.3535.35334A.35342.35342,0,0,0,61.166,1.51578Z" style="fill:#aee2e6"/><path d="M63.1621,1.51578a.35335.35335,0,1,0,.3545.35334A.35319.35319,0,0,0,63.1621,1.51578Z" style="fill:#aee2e6"/><path d="M65.1592,1.51578a.35335.35335,0,1,0,.35352.35334A.35339.35339,0,0,0,65.1592,1.51578Z" style="fill:#aee2e6"/><circle cx="67.1553" cy="1.86912" r="0.35392" style="fill:#aee2e6"/><path d="M69.1524,1.51578a.35335.35335,0,1,0,.3535.35334A.3534.3534,0,0,0,69.1524,1.51578Z" style="fill:#aee2e6"/><path d="M71.1485,1.51578a.35335.35335,0,1,0,.3544.35334A.35321.35321,0,0,0,71.1485,1.51578Z" style="fill:#aee2e6"/><path d="M73.1455,1.51578a.35335.35335,0,1,0,.3535.35334A.3534.3534,0,0,0,73.1455,1.51578Z" style="fill:#aee2e6"/><circle cx="75.1416" cy="1.86912" r="0.35392" style="fill:#aee2e6"/><path d="M77.13872,1.51578a.35335.35335,0,1,0,.35348.35334A.35341.35341,0,0,0,77.13872,1.51578Z" style="fill:#aee2e6"/><path d="M57.1719.22956a.35372.35372,0,0,0,.3545-.35334.35372.35372,0,0,0-.3545-.35334l-.0078.00049q-.129.29676-.2422.60239A.352.352,0,0,0,57.1719.22956Z" style="fill:#aee2e6"/><circle cx="59.169" cy="-0.12378" r="0.35392" style="fill:#aee2e6"/><path d="M61.166-.47712a.35374.35374,0,0,0-.3545.35334.35374.35374,0,0,0,.3545.35334.35351.35351,0,0,0,.3535-.35334A.35351.35351,0,0,0,61.166-.47712Z" style="fill:#aee2e6"/><path d="M63.1621-.47712a.35351.35351,0,0,0-.3535.35334.35351.35351,0,0,0,.3535.35334.35436.35436,0,0,0,.3545-.35334A.35436.35436,0,0,0,63.1621-.47712Z" style="fill:#aee2e6"/><path d="M65.1592-.47712a.35371.35371,0,0,0-.35448.35334.35371.35371,0,0,0,.35448.35334.35352.35352,0,0,0,.35352-.35334A.35352.35352,0,0,0,65.1592-.47712Z" style="fill:#aee2e6"/><circle cx="67.1553" cy="-0.12378" r="0.35392" style="fill:#aee2e6"/><path d="M69.1524-.47712a.35372.35372,0,0,0-.3545.35334.35372.35372,0,0,0,.3545.35334.35349.35349,0,0,0,.3535-.35334A.35349.35349,0,0,0,69.1524-.47712Z" style="fill:#aee2e6"/><path d="M71.1485-.47712a.35353.35353,0,0,0-.3536.35334.35353.35353,0,0,0,.3536.35334.35428.35428,0,0,0,.3544-.35334A.35428.35428,0,0,0,71.1485-.47712Z" style="fill:#aee2e6"/><path d="M73.1455-.47712a.35372.35372,0,0,0-.3545.35334.35372.35372,0,0,0,.3545.35334.35351.35351,0,0,0,.3535-.35334A.35351.35351,0,0,0,73.1455-.47712Z" style="fill:#aee2e6"/><circle cx="75.1416" cy="-0.12378" r="0.35392" style="fill:#aee2e6"/><path d="M76.7842-.12378a.35373.35373,0,0,0,.35452.35334.35245.35245,0,0,0,.25-.1038C77.3145-.078,77.2324-.27879,77.1465-.47663l-.00778-.00049A.35373.35373,0,0,0,76.7842-.12378Z" style="fill:#aee2e6"/><polygon points="95.02 68.362 98.246 65.142 98.661 65.557 95.644 68.569 98.661 71.566 98.247 71.982 95.021 68.777 95.02 68.362" style="fill:#aee2e6"/><polygon points="99.441 68.362 102.667 65.142 103.082 65.557 100.064 68.569 103.082 71.566 102.668 71.982 99.441 68.777 99.441 68.362" style="fill:#aee2e6"/><polygon points="-0.559 68.362 2.667 65.142 3.082 65.557 0.065 68.569 3.082 71.566 2.668 71.982 -0.559 68.777 -0.559 68.362" style="fill:#aee2e6"/><polygon points="3.861 68.362 7.088 65.142 7.502 65.557 4.484 68.569 7.502 71.566 7.088 71.982 3.862 68.777 3.861 68.362" style="fill:#aee2e6"/><path d="M96.1563,4.49016h7.6875v7.67236H96.1563Zm7.0869.59859H96.7568v6.47478h6.4864Z" style="fill:#f7d389"/><path d="M-3.8437,4.49016H3.8438v7.67236H-3.8437Zm7.0869.59859H-3.2432v6.47478H3.2432Z" style="fill:#f7d389"/><rect x="2.2442" y="75.74321" width="0.831" height="22.50174" style="fill:#aee2e6"/><rect x="0.7256" y="75.74321" width="0.83011" height="22.50174" style="fill:#aee2e6"/><rect x="-0.7939" y="75.74321" width="0.831" height="22.50174" style="fill:#aee2e6"/><rect x="99.2061" y="75.74321" width="0.831" height="22.50174" style="fill:#aee2e6"/><rect x="97.6875" y="75.74321" width="0.8301" height="22.50174" style="fill:#aee2e6"/><rect x="96.168" y="75.74321" width="0.8301" height="22.50174" style="fill:#aee2e6"/><rect x="94.6485" y="75.74321" width="0.831" height="22.50174" style="fill:#aee2e6"/><rect x="93.1299" y="75.74321" width="0.8301" height="22.50174" style="fill:#aee2e6"/><rect x="91.6104" y="75.74321" width="0.83" height="22.50174" style="fill:#aee2e6"/><rect x="90.0908" y="75.74321" width="0.8311" height="22.50174" style="fill:#aee2e6"/><rect x="88.5723" y="75.74321" width="0.8301" height="22.50174" style="fill:#aee2e6"/><rect x="87.05272" y="75.74321" width="0.83008" height="22.50174" style="fill:#aee2e6"/><rect x="85.5332" y="75.74321" width="0.8311" height="22.50174" style="fill:#aee2e6"/></g></g></svg>