<?xml version="1.0" encoding="utf-8"?>
<!-- Generator: Adobe Illustrator 24.1.0, SVG Export Plug-In . SVG Version: 6.00 Build 0)  -->
<svg version="1.1" id="BG" xmlns="http://www.w3.org/2000/svg" xmlns:xlink="http://www.w3.org/1999/xlink" x="0px" y="0px"
	 viewBox="0 0 200 300" style="enable-background:new 0 0 200 300;" xml:space="preserve">
<style type="text/css">
	.st0{opacity:0.08;}
	.st1{fill:#FEBC10;}
	.st2{fill:#FF921D;}
	.st3{fill:#465A94;}
	.st4{fill:#F46136;}
	.st5{fill:#AFCAB7;}
	.st6{fill:#F36136;}
	.st7{fill:#211F1C;}
	.st8{fill:#FBF8F5;}
</style>
<g class="st0">
	<g>
		<path class="st1" d="M0,114.01c8.3,2.59,24.45,2.5,33.1,0.39c8.66-2.1,15.91-6,21.63-10.5c13.43-10.56,18.72-24.31,18.83-37.69
			c0.03-4.45-0.46-8.92,0.42-13.33c0.88-4.42,3.29-8.88,8.32-12.09c7.42-4.74,19.02-5.95,27.73-9.78
			c7.45-3.27,12.38-8.31,15.64-13.55c3.2-5.15,5.26-11.95,5.51-17.47L0.14,0L0,114.01z"/>
	</g>
	<g>
		<polygon class="st2" points="120.03,61.55 116.64,58.06 120.03,54.57 118.02,52.51 114.63,55.99 111.25,52.51 109.24,54.57 
			112.63,58.06 109.24,61.55 111.25,63.61 114.63,60.13 118.02,63.61 		"/>
	</g>
	<g>
		<polygon class="st2" points="195.01,294.52 191.62,291.04 195.01,287.55 193.01,285.48 189.62,288.97 186.23,285.48 
			184.22,287.55 187.61,291.04 184.22,294.52 186.23,296.59 189.62,293.1 193.01,296.59 		"/>
	</g>
	<g>
		<path class="st3" d="M196.5,66.11c0-0.5,0.4-0.91,0.89-0.91c0.49,0,0.89,0.41,0.89,0.91c0,0.5-0.4,0.91-0.89,0.91
			C196.89,67.02,196.5,66.61,196.5,66.11z"/>
		<path class="st3" d="M196.5,57.15c0-0.5,0.4-0.91,0.89-0.91c0.49,0,0.89,0.41,0.89,0.91s-0.4,0.91-0.89,0.91
			C196.89,58.06,196.5,57.65,196.5,57.15z"/>
		<ellipse class="st3" cx="186.05" cy="57.15" rx="0.89" ry="0.91"/>
		<path class="st3" d="M196.5,48.18c0-0.5,0.4-0.91,0.89-0.91c0.49,0,0.89,0.41,0.89,0.91s-0.4,0.91-0.89,0.91
			C196.89,49.09,196.5,48.69,196.5,48.18z"/>
		<ellipse class="st3" cx="186.05" cy="48.18" rx="0.89" ry="0.91"/>
		<path class="st3" d="M173.83,48.18c0-0.5,0.4-0.91,0.89-0.91c0.49,0,0.89,0.41,0.89,0.91s-0.4,0.91-0.89,0.91
			C174.23,49.09,173.83,48.69,173.83,48.18z"/>
		<path class="st3" d="M196.5,39.22c0-0.5,0.4-0.91,0.89-0.91c0.49,0,0.89,0.41,0.89,0.91s-0.4,0.91-0.89,0.91
			C196.89,40.13,196.5,39.72,196.5,39.22z"/>
		<ellipse class="st3" cx="186.05" cy="39.22" rx="0.89" ry="0.91"/>
		<path class="st3" d="M173.83,39.22c0-0.5,0.4-0.91,0.89-0.91c0.49,0,0.89,0.41,0.89,0.91s-0.4,0.91-0.89,0.91
			C174.23,40.13,173.83,39.72,173.83,39.22z"/>
		<ellipse class="st3" cx="163.39" cy="39.22" rx="0.89" ry="0.91"/>
		<path class="st3" d="M196.5,30.25c0-0.5,0.4-0.91,0.89-0.91c0.49,0,0.89,0.41,0.89,0.91s-0.4,0.91-0.89,0.91
			C196.89,31.17,196.5,30.76,196.5,30.25z"/>
		<ellipse class="st3" cx="186.05" cy="30.25" rx="0.89" ry="0.91"/>
		<path class="st3" d="M173.83,30.25c0-0.5,0.4-0.91,0.89-0.91c0.49,0,0.89,0.41,0.89,0.91s-0.4,0.91-0.89,0.91
			C174.23,31.17,173.83,30.76,173.83,30.25z"/>
		<ellipse class="st3" cx="163.39" cy="30.25" rx="0.89" ry="0.91"/>
		<ellipse class="st3" cx="152.06" cy="30.25" rx="0.89" ry="0.91"/>
		<path class="st3" d="M196.5,21.29c0-0.5,0.4-0.91,0.89-0.91c0.49,0,0.89,0.41,0.89,0.91s-0.4,0.91-0.89,0.91
			C196.89,22.2,196.5,21.79,196.5,21.29z"/>
		<ellipse class="st3" cx="186.05" cy="21.29" rx="0.89" ry="0.91"/>
		<path class="st3" d="M173.83,21.29c0-0.5,0.4-0.91,0.89-0.91c0.49,0,0.89,0.41,0.89,0.91s-0.4,0.91-0.89,0.91
			C174.23,22.2,173.83,21.79,173.83,21.29z"/>
		<ellipse class="st3" cx="163.39" cy="21.29" rx="0.89" ry="0.91"/>
		<ellipse class="st3" cx="152.06" cy="21.29" rx="0.89" ry="0.91"/>
		<path class="st3" d="M139.84,21.29c0-0.5,0.4-0.91,0.89-0.91c0.49,0,0.89,0.41,0.89,0.91s-0.4,0.91-0.89,0.91
			C140.23,22.2,139.84,21.79,139.84,21.29z"/>
	</g>
	<g>
		<path class="st4" d="M167.27,217.16c-0.49,0-0.89-0.41-0.89-0.91s0.4-0.91,0.89-0.91s0.89,0.41,0.89,0.91
			S167.76,217.16,167.27,217.16z"/>
		<path class="st4" d="M158.56,217.16c-0.49,0-0.89-0.41-0.89-0.91s0.4-0.91,0.89-0.91c0.49,0,0.89,0.41,0.89,0.91
			S159.05,217.16,158.56,217.16z"/>
		<ellipse class="st4" cx="158.56" cy="227.91" rx="0.89" ry="0.91"/>
		<path class="st4" d="M149.85,217.16c-0.49,0-0.89-0.41-0.89-0.91s0.4-0.91,0.89-0.91c0.49,0,0.89,0.41,0.89,0.91
			S150.34,217.16,149.85,217.16z"/>
		<ellipse class="st4" cx="149.85" cy="227.91" rx="0.89" ry="0.91"/>
		<ellipse class="st4" cx="149.85" cy="239.57" rx="0.89" ry="0.91"/>
		<path class="st4" d="M141.14,217.16c-0.49,0-0.89-0.41-0.89-0.91s0.4-0.91,0.89-0.91c0.49,0,0.89,0.41,0.89,0.91
			S141.63,217.16,141.14,217.16z"/>
		<ellipse class="st4" cx="141.14" cy="227.91" rx="0.89" ry="0.91"/>
		<ellipse class="st4" cx="141.14" cy="239.57" rx="0.89" ry="0.91"/>
		<ellipse class="st4" cx="141.14" cy="251.23" rx="0.89" ry="0.91"/>
		<path class="st4" d="M132.43,217.16c-0.49,0-0.89-0.41-0.89-0.91s0.4-0.91,0.89-0.91c0.49,0,0.89,0.41,0.89,0.91
			S132.92,217.16,132.43,217.16z"/>
		<ellipse class="st4" cx="132.43" cy="227.91" rx="0.89" ry="0.91"/>
		<ellipse class="st4" cx="132.43" cy="239.57" rx="0.89" ry="0.91"/>
		<ellipse class="st4" cx="132.43" cy="251.23" rx="0.89" ry="0.91"/>
		<ellipse class="st4" cx="132.43" cy="262.89" rx="0.89" ry="0.91"/>
		<path class="st4" d="M123.72,217.16c-0.49,0-0.89-0.41-0.89-0.91s0.4-0.91,0.89-0.91c0.49,0,0.89,0.41,0.89,0.91
			S124.21,217.16,123.72,217.16z"/>
		<ellipse class="st4" cx="123.72" cy="227.91" rx="0.89" ry="0.91"/>
		<ellipse class="st4" cx="123.72" cy="239.57" rx="0.89" ry="0.91"/>
		<ellipse class="st4" cx="123.72" cy="251.23" rx="0.89" ry="0.91"/>
		<ellipse class="st4" cx="123.72" cy="262.89" rx="0.89" ry="0.91"/>
		<path class="st4" d="M123.72,275.47c-0.49,0-0.89-0.41-0.89-0.91s0.4-0.91,0.89-0.91c0.49,0,0.89,0.41,0.89,0.91
			S124.21,275.47,123.72,275.47z"/>
	</g>
	<g>
		<path class="st5" d="M3.79,254.26c0,0.5-0.4,0.91-0.89,0.91c-0.49,0-0.89-0.41-0.89-0.91s0.4-0.91,0.89-0.91
			C3.39,253.35,3.79,253.76,3.79,254.26z"/>
		<path class="st5" d="M3.79,263.23c0,0.5-0.4,0.91-0.89,0.91c-0.49,0-0.89-0.41-0.89-0.91s0.4-0.91,0.89-0.91
			C3.39,262.32,3.79,262.72,3.79,263.23z"/>
		<path class="st5" d="M15.12,263.23c0,0.5-0.4,0.91-0.89,0.91c-0.49,0-0.89-0.41-0.89-0.91s0.4-0.91,0.89-0.91
			C14.72,262.32,15.12,262.72,15.12,263.23z"/>
		<path class="st5" d="M3.79,272.19c0,0.5-0.4,0.91-0.89,0.91c-0.49,0-0.89-0.41-0.89-0.91s0.4-0.91,0.89-0.91
			C3.39,271.28,3.79,271.69,3.79,272.19z"/>
		<path class="st5" d="M15.12,272.19c0,0.5-0.4,0.91-0.89,0.91c-0.49,0-0.89-0.41-0.89-0.91s0.4-0.91,0.89-0.91
			C14.72,271.28,15.12,271.69,15.12,272.19z"/>
		<ellipse class="st5" cx="25.56" cy="272.19" rx="0.89" ry="0.91"/>
		<path class="st5" d="M3.79,281.16c0,0.5-0.4,0.91-0.89,0.91c-0.49,0-0.89-0.41-0.89-0.91c0-0.5,0.4-0.91,0.89-0.91
			C3.39,280.24,3.79,280.65,3.79,281.16z"/>
		<ellipse class="st5" cx="14.23" cy="281.16" rx="0.89" ry="0.91"/>
		<path class="st5" d="M26.45,281.16c0,0.5-0.4,0.91-0.89,0.91c-0.49,0-0.89-0.41-0.89-0.91c0-0.5,0.4-0.91,0.89-0.91
			C26.05,280.24,26.45,280.65,26.45,281.16z"/>
		<ellipse class="st5" cx="36.89" cy="281.16" rx="0.89" ry="0.91"/>
		<path class="st5" d="M3.79,290.12c0,0.5-0.4,0.91-0.89,0.91c-0.49,0-0.89-0.41-0.89-0.91s0.4-0.91,0.89-0.91
			C3.39,289.21,3.79,289.62,3.79,290.12z"/>
		<ellipse class="st5" cx="14.23" cy="290.12" rx="0.89" ry="0.91"/>
		<path class="st5" d="M26.45,290.12c0,0.5-0.4,0.91-0.89,0.91c-0.49,0-0.89-0.41-0.89-0.91s0.4-0.91,0.89-0.91
			C26.05,289.21,26.45,289.62,26.45,290.12z"/>
		<ellipse class="st5" cx="36.89" cy="290.12" rx="0.89" ry="0.91"/>
		<ellipse class="st5" cx="48.23" cy="290.12" rx="0.89" ry="0.91"/>
		<path class="st5" d="M3.79,299.09c0,0.5-0.4,0.91-0.89,0.91c-0.49,0-0.89-0.41-0.89-0.91s0.4-0.91,0.89-0.91
			C3.39,298.17,3.79,298.58,3.79,299.09z"/>
		<ellipse class="st5" cx="14.23" cy="299.09" rx="0.89" ry="0.91"/>
		<path class="st5" d="M26.45,299.09c0,0.5-0.4,0.91-0.89,0.91c-0.49,0-0.89-0.41-0.89-0.91s0.4-0.91,0.89-0.91
			C26.05,298.17,26.45,298.58,26.45,299.09z"/>
		<ellipse class="st5" cx="36.89" cy="299.09" rx="0.89" ry="0.91"/>
		<ellipse class="st5" cx="48.23" cy="299.09" rx="0.89" ry="0.91"/>
		<path class="st5" d="M60.45,299.09c0,0.5-0.4,0.91-0.89,0.91s-0.89-0.41-0.89-0.91s0.4-0.91,0.89-0.91S60.45,298.58,60.45,299.09z
			"/>
	</g>
	<g>
		<polygon class="st6" points="24.35,85.36 15.43,95.84 23.59,105.43 15.43,115.01 23.62,124.64 15.43,134.26 24.35,144.74 
			24.35,142.92 17.01,134.29 25.27,124.57 17.08,114.95 25.27,105.32 17.1,95.71 24.35,87.18 		"/>
	</g>
	<polygon class="st1" points="106.47,221.27 96.28,212.09 86.97,220.49 77.66,212.09 68.3,220.52 58.95,212.09 48.76,221.27 
		50.54,221.27 58.93,213.71 68.36,222.22 77.72,213.79 87.07,222.22 96.41,213.81 104.69,221.27 	"/>
	<g>
		<ellipse class="st4" cx="173.74" cy="257.73" rx="12.86" ry="13.24"/>
		<g>
			<g>
				<path class="st7" d="M166.32,251.74c6.68,0,12.11,5.6,12.11,12.49c0,6.88-5.43,12.49-12.11,12.49c-6.68,0-12.11-5.6-12.11-12.49
					C154.21,257.34,159.65,251.74,166.32,251.74 M166.32,250.99c-7.1,0-12.86,5.93-12.86,13.24c0,7.31,5.76,13.24,12.86,13.24
					c7.1,0,12.86-5.93,12.86-13.24C179.19,256.92,173.43,250.99,166.32,250.99L166.32,250.99z"/>
			</g>
		</g>
	</g>
	<g>
		<path class="st3" d="M28.84,225.11c1.97,0,3.57-1.64,3.57-3.67c0-2.03-1.6-3.67-3.57-3.67c-1.97,0-3.57,1.64-3.57,3.67
			C25.27,223.46,26.87,225.11,28.84,225.11z M28.84,218.98c1.32,0,2.39,1.1,2.39,2.46c0,1.36-1.07,2.46-2.39,2.46
			c-1.32,0-2.39-1.1-2.39-2.46C26.45,220.08,27.52,218.98,28.84,218.98z"/>
	</g>
	<g>
		<path class="st3" d="M186.05,178.57c1.97,0,3.57-1.64,3.57-3.67c0-2.03-1.6-3.67-3.57-3.67c-1.97,0-3.57,1.64-3.57,3.67
			C182.49,176.92,184.08,178.57,186.05,178.57z M186.05,172.44c1.32,0,2.39,1.1,2.39,2.46c0,1.36-1.07,2.46-2.39,2.46
			c-1.32,0-2.39-1.1-2.39-2.46C183.66,173.54,184.73,172.44,186.05,172.44z"/>
	</g>
	<g>
		<path class="st3" d="M34.79,68.87c1.97,0,3.57-1.64,3.57-3.67c0-2.03-1.6-3.67-3.57-3.67c-1.97,0-3.57,1.64-3.57,3.67
			C31.23,67.22,32.82,68.87,34.79,68.87z M34.79,62.74c1.32,0,2.39,1.1,2.39,2.46c0,1.36-1.07,2.46-2.39,2.46
			c-1.32,0-2.39-1.1-2.39-2.46C32.4,63.84,33.47,62.74,34.79,62.74z"/>
	</g>
	<g>
		<polygon class="st5" points="44.43,175.57 27.76,199.39 13.29,175.57 		"/>
		<g>
			<path class="st7" d="M32.31,181.27l-15.18,21.69L3.94,181.27H32.31 M33.75,180.52H2.6l14.48,23.81L33.75,180.52L33.75,180.52z"/>
		</g>
	</g>
	<g>
		<path class="st4" d="M174.23,97.59c14.23,0,25.77-11.88,25.77-26.52h-51.54C148.46,85.72,159.99,97.59,174.23,97.59z"/>
		<g>
			<path class="st7" d="M187.9,79.53c-0.39,13.87-11.46,25.02-25.01,25.02c-13.55,0-24.63-11.16-25.01-25.02H187.9 M188.66,78.78
				h-51.54c0,14.65,11.54,26.52,25.77,26.52C177.12,105.3,188.66,93.43,188.66,78.78L188.66,78.78z"/>
		</g>
	</g>
	<path class="st1" d="M100.35,298.38c7.89,0,14.28-6.58,14.28-14.7H86.07C86.07,291.8,92.46,298.38,100.35,298.38z"/>
	<path class="st3" d="M96.59,104.63c7.89,0,14.28-6.58,14.28-14.7H82.31C82.31,98.05,88.7,104.63,96.59,104.63z"/>
	<path class="st3" d="M92.19,14.64c-5.45,0-9.88,4.55-9.88,10.16h19.75C102.06,19.19,97.64,14.64,92.19,14.64z"/>
	<g>
		<path class="st8" d="M44.05,26.69c7.6,0,13.76,6.34,13.76,14.16h6.77c0-11.67-9.19-21.13-20.53-21.13s-20.53,9.46-20.53,21.13
			h6.77C30.29,33.03,36.45,26.69,44.05,26.69z"/>
	</g>
	<path class="st3" d="M53.35,246.37c12.21,0,22.11,10.19,22.11,22.75h10.88c0-18.75-14.77-33.96-32.99-33.96
		c-18.22,0-33,15.2-33,33.96h10.88C31.24,256.56,41.14,246.37,53.35,246.37z"/>
</g>
<g>
</g>
<g>
</g>
<g>
</g>
<g>
</g>
<g>
</g>
<g>
</g>
<g>
</g>
<g>
</g>
<g>
</g>
<g>
</g>
<g>
</g>
<g>
</g>
<g>
</g>
<g>
</g>
<g>
</g>
</svg>
