<?xml version="1.0" encoding="utf-8"?>
<!-- Generator: Adobe Illustrator 24.1.0, SVG Export Plug-In . SVG Version: 6.00 Build 0)  -->
<svg version="1.1" id="BG" xmlns="http://www.w3.org/2000/svg" xmlns:xlink="http://www.w3.org/1999/xlink" x="0px" y="0px"
	 viewBox="0 0 200 300" style="enable-background:new 0 0 200 300;" xml:space="preserve">
<style type="text/css">
	.st0{opacity:0.08;}
	.st1{fill:#F46136;}
	.st2{fill:#FF921D;}
	.st3{fill:#FBF8F5;}
	.st4{fill:#465A94;}
	.st5{fill:#F36136;}
	.st6{fill:#211F1C;}
	.st7{fill:#FF941E;}
	.st8{fill:#AFCAB7;}
</style>
<g class="st0">
	<g>
		<path class="st1" d="M138.41,0c1.54,7.48,0.51,16.25-3.16,25.19c-2.67,6.51-7.09,12.11-12.41,16.46
			C110.36,51.87,94.1,55.9,78.28,55.98c-5.26,0.03-10.54-0.35-15.76,0.32c-5.22,0.67-10.49,2.5-14.29,6.33
			c-5.6,5.64-7.04,14.47-11.56,21.1c-3.87,5.67-9.82,9.42-16.02,11.91C14.56,98.08,6.52,99.64,0,99.83V0.11L138.41,0z"/>
	</g>
	<g>
		<polygon class="st2" points="156.2,289.91 159.62,286.31 156.2,282.71 158.22,280.58 161.65,284.18 165.07,280.58 167.09,282.71 
			163.67,286.31 167.09,289.91 165.07,292.04 161.65,288.44 158.22,292.04 		"/>
	</g>
	<g>
		<polygon class="st2" points="120.36,97.35 123.78,93.75 120.36,90.15 122.39,88.01 125.81,91.61 129.23,88.01 131.26,90.15 
			127.83,93.75 131.26,97.35 129.23,99.48 125.81,95.88 122.39,99.48 		"/>
	</g>
	<g>
		<polygon class="st3" points="21.72,47.5 25.14,43.9 21.72,40.3 23.75,38.16 27.17,41.76 30.59,38.16 32.62,40.3 29.2,43.9 
			32.62,47.5 30.59,49.63 27.17,46.03 23.75,49.63 		"/>
	</g>
	<g>
		<path class="st4" d="M15.04,273.92c0-0.52-0.4-0.94-0.9-0.94c-0.5,0-0.9,0.42-0.9,0.94s0.4,0.94,0.9,0.94
			C14.64,274.86,15.04,274.44,15.04,273.92z"/>
		<path class="st4" d="M15.04,264.66c0-0.52-0.4-0.94-0.9-0.94c-0.5,0-0.9,0.42-0.9,0.94s0.4,0.94,0.9,0.94
			C14.64,265.61,15.04,265.18,15.04,264.66z"/>
		<ellipse class="st4" cx="25.59" cy="264.66" rx="0.9" ry="0.94"/>
		<path class="st4" d="M15.04,255.41c0-0.52-0.4-0.94-0.9-0.94c-0.5,0-0.9,0.42-0.9,0.94s0.4,0.94,0.9,0.94
			C14.64,256.35,15.04,255.93,15.04,255.41z"/>
		<ellipse class="st4" cx="25.59" cy="255.41" rx="0.9" ry="0.94"/>
		<ellipse class="st4" cx="37.03" cy="255.41" rx="0.9" ry="0.94"/>
		<path class="st4" d="M15.04,246.16c0-0.52-0.4-0.94-0.9-0.94c-0.5,0-0.9,0.42-0.9,0.94c0,0.52,0.4,0.94,0.9,0.94
			C14.64,247.1,15.04,246.68,15.04,246.16z"/>
		<ellipse class="st4" cx="25.59" cy="246.16" rx="0.9" ry="0.94"/>
		<ellipse class="st4" cx="37.03" cy="246.16" rx="0.9" ry="0.94"/>
		<ellipse class="st4" cx="48.47" cy="246.16" rx="0.9" ry="0.94"/>
		<path class="st4" d="M15.04,236.9c0-0.52-0.4-0.94-0.9-0.94c-0.5,0-0.9,0.42-0.9,0.94s0.4,0.94,0.9,0.94
			C14.64,237.84,15.04,237.42,15.04,236.9z"/>
		<ellipse class="st4" cx="25.59" cy="236.9" rx="0.9" ry="0.94"/>
		<ellipse class="st4" cx="37.03" cy="236.9" rx="0.9" ry="0.94"/>
		<ellipse class="st4" cx="48.47" cy="236.9" rx="0.9" ry="0.94"/>
		<ellipse class="st4" cx="59.91" cy="236.9" rx="0.9" ry="0.94"/>
		<path class="st4" d="M15.04,227.65c0-0.52-0.4-0.94-0.9-0.94c-0.5,0-0.9,0.42-0.9,0.94c0,0.52,0.4,0.94,0.9,0.94
			C14.64,228.59,15.04,228.17,15.04,227.65z"/>
		<ellipse class="st4" cx="25.59" cy="227.65" rx="0.9" ry="0.94"/>
		<ellipse class="st4" cx="37.03" cy="227.65" rx="0.9" ry="0.94"/>
		<ellipse class="st4" cx="48.47" cy="227.65" rx="0.9" ry="0.94"/>
		<ellipse class="st4" cx="59.91" cy="227.65" rx="0.9" ry="0.94"/>
		<path class="st4" d="M72.25,227.65c0-0.52-0.4-0.94-0.9-0.94s-0.9,0.42-0.9,0.94c0,0.52,0.4,0.94,0.9,0.94
			S72.25,228.17,72.25,227.65z"/>
	</g>
	<g>
		<g>
			<path class="st5" d="M151.95,20.76c0.5,0,0.9-0.42,0.9-0.94c0-0.52-0.4-0.94-0.9-0.94s-0.9,0.42-0.9,0.94
				C151.06,20.34,151.46,20.76,151.95,20.76z"/>
		</g>
		<g>
			<path class="st5" d="M160.75,20.76c0.5,0,0.9-0.42,0.9-0.94c0-0.52-0.4-0.94-0.9-0.94s-0.9,0.42-0.9,0.94
				C159.85,20.34,160.25,20.76,160.75,20.76z"/>
		</g>
		<g>
			<ellipse class="st5" cx="160.75" cy="31.86" rx="0.9" ry="0.94"/>
		</g>
		<g>
			<path class="st5" d="M169.54,20.76c0.5,0,0.9-0.42,0.9-0.94c0-0.52-0.4-0.94-0.9-0.94c-0.5,0-0.9,0.42-0.9,0.94
				C168.65,20.34,169.05,20.76,169.54,20.76z"/>
		</g>
		<g>
			<ellipse class="st5" cx="169.54" cy="31.86" rx="0.9" ry="0.94"/>
		</g>
		<g>
			<ellipse class="st5" cx="169.54" cy="43.9" rx="0.9" ry="0.94"/>
		</g>
		<g>
			<path class="st5" d="M178.34,20.76c0.5,0,0.9-0.42,0.9-0.94c0-0.52-0.4-0.94-0.9-0.94s-0.9,0.42-0.9,0.94
				C177.44,20.34,177.84,20.76,178.34,20.76z"/>
		</g>
		<g>
			<ellipse class="st5" cx="178.34" cy="31.86" rx="0.9" ry="0.94"/>
		</g>
		<g>
			<ellipse class="st5" cx="178.34" cy="43.9" rx="0.9" ry="0.94"/>
		</g>
		<g>
			<ellipse class="st5" cx="178.34" cy="55.93" rx="0.9" ry="0.94"/>
		</g>
		<g>
			<path class="st5" d="M187.13,20.76c0.5,0,0.9-0.42,0.9-0.94c0-0.52-0.4-0.94-0.9-0.94s-0.9,0.42-0.9,0.94
				C186.24,20.34,186.64,20.76,187.13,20.76z"/>
		</g>
		<g>
			<ellipse class="st5" cx="187.13" cy="31.86" rx="0.9" ry="0.94"/>
		</g>
		<g>
			<ellipse class="st5" cx="187.13" cy="43.9" rx="0.9" ry="0.94"/>
		</g>
		<g>
			<ellipse class="st5" cx="187.13" cy="55.93" rx="0.9" ry="0.94"/>
		</g>
		<g>
			<ellipse class="st5" cx="187.13" cy="67.97" rx="0.9" ry="0.94"/>
		</g>
		<g>
			<path class="st5" d="M195.93,20.76c0.5,0,0.9-0.42,0.9-0.94c0-0.52-0.4-0.94-0.9-0.94s-0.9,0.42-0.9,0.94
				C195.03,20.34,195.43,20.76,195.93,20.76z"/>
		</g>
		<g>
			<ellipse class="st5" cx="195.93" cy="31.86" rx="0.9" ry="0.94"/>
		</g>
		<g>
			<ellipse class="st5" cx="195.93" cy="43.9" rx="0.9" ry="0.94"/>
		</g>
		<g>
			<ellipse class="st5" cx="195.93" cy="55.93" rx="0.9" ry="0.94"/>
		</g>
		<g>
			<ellipse class="st5" cx="195.93" cy="67.97" rx="0.9" ry="0.94"/>
		</g>
		<g>
			<path class="st5" d="M195.93,80.96c0.5,0,0.9-0.42,0.9-0.94s-0.4-0.94-0.9-0.94s-0.9,0.42-0.9,0.94S195.43,80.96,195.93,80.96z"
				/>
		</g>
	</g>
	<g>
		<polygon class="st5" points="190.99,150.34 200,161.16 191.77,171.05 200,180.95 191.73,190.88 200,200.82 190.99,211.64 
			190.99,209.76 198.41,200.85 190.06,190.82 198.33,180.88 190.06,170.95 198.32,161.03 190.99,152.22 		"/>
	</g>
	<g>
		<polygon class="st3" points="115.96,18.2 105.67,27.68 96.27,19.02 86.87,27.68 77.43,18.98 67.98,27.68 57.7,18.2 59.49,18.2 
			67.96,26 77.49,17.22 86.93,25.92 96.37,17.22 105.8,25.91 114.17,18.2 		"/>
	</g>
	<g>
		<polygon class="st5" points="17.48,110.49 26.48,121.32 18.25,131.21 26.48,141.1 18.21,151.04 26.48,160.97 17.48,171.8 
			17.48,169.91 24.89,161 16.55,150.97 24.82,141.04 16.55,131.1 24.8,121.18 17.48,112.38 		"/>
	</g>
	<g>
		<g>
			<path class="st5" d="M167.09,247.1c0-4.21-3.24-7.62-7.24-7.62s-7.24,3.41-7.24,7.62c0,4.21,3.24,7.62,7.24,7.62
				S167.09,251.31,167.09,247.1z"/>
		</g>
		<g>
			<g>
				<path class="st6" d="M164.03,243.97c3.58,0,6.49,3.08,6.49,6.87c0,3.79-2.91,6.87-6.49,6.87c-3.58,0-6.49-3.08-6.49-6.87
					C157.53,247.05,160.45,243.97,164.03,243.97 M164.03,243.22c-4,0-7.24,3.41-7.24,7.62s3.24,7.62,7.24,7.62
					c4,0,7.24-3.41,7.24-7.62S168.03,243.22,164.03,243.22L164.03,243.22z"/>
			</g>
		</g>
	</g>
	<g>
		<path class="st7" d="M158.01,62.61c0-4.21-3.24-7.62-7.24-7.62c-4,0-7.24,3.41-7.24,7.62s3.24,7.62,7.24,7.62
			C154.76,70.23,158.01,66.82,158.01,62.61z"/>
		<g>
			<g>
				<path class="st6" d="M154.94,59.48c3.58,0,6.49,3.08,6.49,6.87c0,3.79-2.91,6.87-6.49,6.87c-3.58,0-6.49-3.08-6.49-6.87
					C148.45,62.56,151.36,59.48,154.94,59.48 M154.94,58.73c-4,0-7.24,3.41-7.24,7.62s3.24,7.62,7.24,7.62c4,0,7.24-3.41,7.24-7.62
					S158.94,58.73,154.94,58.73L154.94,58.73z"/>
			</g>
		</g>
	</g>
	<g>
		<path class="st4" d="M135.83,272.62c0-2.09-1.61-3.79-3.6-3.79c-1.99,0-3.6,1.7-3.6,3.79c0,2.09,1.61,3.79,3.6,3.79
			C134.22,276.41,135.83,274.71,135.83,272.62z M134.65,272.62c0,1.4-1.08,2.54-2.41,2.54c-1.33,0-2.41-1.14-2.41-2.54
			c0-1.4,1.08-2.54,2.41-2.54C133.57,270.08,134.65,271.22,134.65,272.62z"/>
	</g>
	<g>
		<path class="st4" d="M195.23,114.28c0-2.09-1.61-3.79-3.6-3.79c-1.99,0-3.6,1.7-3.6,3.79c0,2.09,1.61,3.79,3.6,3.79
			C193.62,118.07,195.23,116.37,195.23,114.28z M194.04,114.28c0,1.4-1.08,2.54-2.41,2.54c-1.33,0-2.41-1.14-2.41-2.54
			c0-1.4,1.08-2.54,2.41-2.54C192.96,111.74,194.04,112.88,194.04,114.28z"/>
	</g>
	<g>
		<polygon class="st8" points="96.23,225.51 109.14,244.37 120.36,225.51 		"/>
		<g>
			<path class="st6" d="M127.32,230.18l-9.94,16.72l-11.45-16.72H127.32 M128.63,229.43H104.5l12.91,18.86L128.63,229.43
				L128.63,229.43z"/>
		</g>
	</g>
	<g>
		<path class="st7" d="M71.7,292.04c-14.37,0-26.02-12.26-26.02-27.38h52.04C97.72,279.78,86.07,292.04,71.7,292.04z"/>
		<g>
			<path class="st6" d="M108.41,273.37c-0.38,14.34-11.57,25.88-25.26,25.88c-13.7,0-24.88-11.54-25.26-25.88H108.41 M109.17,272.62
				H57.13c0,15.12,11.65,27.38,26.02,27.38C97.52,300,109.17,287.74,109.17,272.62L109.17,272.62z"/>
		</g>
	</g>
	<path class="st7" d="M68.73,92.23c-7.96,0-14.42-6.79-14.42-15.17h28.84C83.15,85.44,76.69,92.23,68.73,92.23z"/>
	<path class="st4" d="M46.43,187.94c-5.32,0-9.63,4.54-9.63,10.14h-4.74c0-8.35,6.44-15.13,14.38-15.13s14.38,6.77,14.38,15.13
		h-4.74C56.07,192.48,51.75,187.94,46.43,187.94z"/>
</g>
<g>
</g>
<g>
</g>
<g>
</g>
<g>
</g>
<g>
</g>
<g>
</g>
<g>
</g>
<g>
</g>
<g>
</g>
<g>
</g>
<g>
</g>
<g>
</g>
<g>
</g>
<g>
</g>
<g>
</g>
</svg>
