<?xml version="1.0" encoding="utf-8"?>
<!-- Generator: Adobe Illustrator 24.1.0, SVG Export Plug-In . SVG Version: 6.00 Build 0)  -->
<svg version="1.1" id="BG" xmlns="http://www.w3.org/2000/svg" xmlns:xlink="http://www.w3.org/1999/xlink" x="0px" y="0px"
	 viewBox="0 0 200 300" style="enable-background:new 0 0 200 300;" xml:space="preserve">
<style type="text/css">
	.st0{opacity:0.125;}
	.st1{fill:#AFCAB7;}
	.st2{fill:#F46136;}
	.st3{fill:#FF921D;}
	.st4{fill:#465A94;}
	.st5{fill:#FBF8F5;}
	.st6{fill:#FEBC10;}
	.st7{fill:#211F1C;}
	.st8{fill:#FF941E;}
</style>
<g class="st0">
	<g>
		<path class="st1" d="M0,113c9.2,4.92,19.93,4.74,29.93,2.18c10-2.57,16.29-7.52,22.39-16.36c7.85-11.39,10.95-26.56,21.06-35.69
			c7.51-6.78,17.68-9.04,27.46-10.06c9.79-1.02,19.8-1.05,29.14-4.32c18.74-6.55,32.55-25.11,32.34-46.18
			c-0.01-1.16-0.35-2.49-2.17-2.55L0.1,0.07L0,113z"/>
	</g>
	<polygon class="st2" points="103.4,211.73 100.06,215.3 103.4,218.87 101.42,220.99 98.08,217.42 94.73,220.99 92.75,218.87 
		96.1,215.3 92.75,211.73 94.73,209.61 98.08,213.19 101.42,209.61 	"/>
	<g>
		<polygon class="st3" points="25.73,286.94 22.39,290.51 25.73,294.08 23.75,296.2 20.41,292.63 17.07,296.2 15.09,294.08 
			18.43,290.51 15.09,286.94 17.07,284.82 20.41,288.4 23.75,284.82 		"/>
	</g>
	<g>
		<path class="st4" d="M193.06,33.6c0,0.52,0.39,0.94,0.88,0.94s0.88-0.42,0.88-0.94c0-0.52-0.39-0.94-0.88-0.94
			S193.06,33.08,193.06,33.6z"/>
		<path class="st4" d="M193.06,42.78c0,0.52,0.39,0.94,0.88,0.94s0.88-0.42,0.88-0.94s-0.39-0.94-0.88-0.94
			S193.06,42.26,193.06,42.78z"/>
		<ellipse class="st4" cx="182.75" cy="42.78" rx="0.88" ry="0.94"/>
		<path class="st4" d="M193.06,51.96c0,0.52,0.39,0.94,0.88,0.94s0.88-0.42,0.88-0.94c0-0.52-0.39-0.94-0.88-0.94
			S193.06,51.44,193.06,51.96z"/>
		<ellipse class="st4" cx="182.75" cy="51.96" rx="0.88" ry="0.94"/>
		<ellipse class="st4" cx="171.58" cy="51.96" rx="0.88" ry="0.94"/>
		<path class="st4" d="M193.06,61.14c0,0.52,0.39,0.94,0.88,0.94s0.88-0.42,0.88-0.94s-0.39-0.94-0.88-0.94
			S193.06,60.62,193.06,61.14z"/>
		<ellipse class="st4" cx="182.75" cy="61.14" rx="0.88" ry="0.94"/>
		<ellipse class="st4" cx="171.58" cy="61.14" rx="0.88" ry="0.94"/>
		<ellipse class="st4" cx="160.4" cy="61.14" rx="0.88" ry="0.94"/>
		<path class="st4" d="M193.06,70.32c0,0.52,0.39,0.94,0.88,0.94s0.88-0.42,0.88-0.94c0-0.52-0.39-0.94-0.88-0.94
			S193.06,69.8,193.06,70.32z"/>
		<ellipse class="st4" cx="182.75" cy="70.32" rx="0.88" ry="0.94"/>
		<ellipse class="st4" cx="171.58" cy="70.32" rx="0.88" ry="0.94"/>
		<ellipse class="st4" cx="160.4" cy="70.32" rx="0.88" ry="0.94"/>
		<ellipse class="st4" cx="149.22" cy="70.32" rx="0.88" ry="0.94"/>
		<path class="st4" d="M193.06,79.5c0,0.52,0.39,0.94,0.88,0.94s0.88-0.42,0.88-0.94s-0.39-0.94-0.88-0.94S193.06,78.98,193.06,79.5
			z"/>
		<ellipse class="st4" cx="182.75" cy="79.5" rx="0.88" ry="0.94"/>
		<ellipse class="st4" cx="171.58" cy="79.5" rx="0.88" ry="0.94"/>
		<ellipse class="st4" cx="160.4" cy="79.5" rx="0.88" ry="0.94"/>
		<ellipse class="st4" cx="149.22" cy="79.5" rx="0.88" ry="0.94"/>
		<path class="st4" d="M137.16,79.5c0,0.52,0.39,0.94,0.88,0.94c0.48,0,0.88-0.42,0.88-0.94s-0.39-0.94-0.88-0.94
			C137.56,78.56,137.16,78.98,137.16,79.5z"/>
	</g>
	<g>
		<path class="st2" d="M49.29,214.37c-0.48,0-0.88,0.42-0.88,0.94c0,0.52,0.39,0.94,0.88,0.94c0.48,0,0.88-0.42,0.88-0.94
			C50.17,214.78,49.77,214.37,49.29,214.37z"/>
		<path class="st2" d="M40.7,214.37c-0.48,0-0.88,0.42-0.88,0.94c0,0.52,0.39,0.94,0.88,0.94s0.88-0.42,0.88-0.94
			C41.57,214.78,41.18,214.37,40.7,214.37z"/>
		<ellipse class="st2" cx="40.7" cy="203.36" rx="0.88" ry="0.94"/>
		<path class="st2" d="M32.11,214.37c-0.48,0-0.88,0.42-0.88,0.94c0,0.52,0.39,0.94,0.88,0.94c0.48,0,0.88-0.42,0.88-0.94
			C32.98,214.78,32.59,214.37,32.11,214.37z"/>
		<ellipse class="st2" cx="32.11" cy="203.36" rx="0.88" ry="0.94"/>
		<ellipse class="st2" cx="32.11" cy="191.42" rx="0.88" ry="0.94"/>
		<path class="st2" d="M23.51,214.37c-0.48,0-0.88,0.42-0.88,0.94c0,0.52,0.39,0.94,0.88,0.94c0.48,0,0.88-0.42,0.88-0.94
			C24.39,214.78,24,214.37,23.51,214.37z"/>
		<ellipse class="st2" cx="23.51" cy="203.36" rx="0.88" ry="0.94"/>
		<ellipse class="st2" cx="23.51" cy="191.42" rx="0.88" ry="0.94"/>
		<ellipse class="st2" cx="23.51" cy="179.47" rx="0.88" ry="0.94"/>
		<path class="st2" d="M14.92,214.37c-0.48,0-0.88,0.42-0.88,0.94c0,0.52,0.39,0.94,0.88,0.94c0.48,0,0.88-0.42,0.88-0.94
			C15.8,214.78,15.4,214.37,14.92,214.37z"/>
		<path class="st2" d="M14.92,202.42c-0.48,0-0.88,0.42-0.88,0.94c0,0.52,0.39,0.94,0.88,0.94c0.48,0,0.88-0.42,0.88-0.94
			C15.8,202.84,15.4,202.42,14.92,202.42z"/>
		<path class="st2" d="M14.92,190.48c-0.48,0-0.88,0.42-0.88,0.94c0,0.52,0.39,0.94,0.88,0.94c0.48,0,0.88-0.42,0.88-0.94
			C15.8,190.9,15.4,190.48,14.92,190.48z"/>
		<path class="st2" d="M14.92,178.54c-0.48,0-0.88,0.42-0.88,0.94c0,0.52,0.39,0.94,0.88,0.94c0.48,0,0.88-0.42,0.88-0.94
			C15.8,178.96,15.4,178.54,14.92,178.54z"/>
		<path class="st2" d="M14.92,166.59c-0.48,0-0.88,0.42-0.88,0.94s0.39,0.94,0.88,0.94c0.48,0,0.88-0.42,0.88-0.94
			S15.4,166.59,14.92,166.59z"/>
		<path class="st2" d="M6.33,214.37c-0.48,0-0.88,0.42-0.88,0.94c0,0.52,0.39,0.94,0.88,0.94s0.88-0.42,0.88-0.94
			C7.2,214.78,6.81,214.37,6.33,214.37z"/>
		<path class="st2" d="M6.33,202.42c-0.48,0-0.88,0.42-0.88,0.94c0,0.52,0.39,0.94,0.88,0.94s0.88-0.42,0.88-0.94
			C7.2,202.84,6.81,202.42,6.33,202.42z"/>
		<path class="st2" d="M6.33,190.48c-0.48,0-0.88,0.42-0.88,0.94c0,0.52,0.39,0.94,0.88,0.94s0.88-0.42,0.88-0.94
			C7.2,190.9,6.81,190.48,6.33,190.48z"/>
		<path class="st2" d="M6.33,178.54c-0.48,0-0.88,0.42-0.88,0.94c0,0.52,0.39,0.94,0.88,0.94s0.88-0.42,0.88-0.94
			C7.2,178.96,6.81,178.54,6.33,178.54z"/>
		<path class="st2" d="M6.33,166.59c-0.48,0-0.88,0.42-0.88,0.94s0.39,0.94,0.88,0.94s0.88-0.42,0.88-0.94S6.81,166.59,6.33,166.59z
			"/>
		<path class="st2" d="M6.33,154.65c-0.48,0-0.88,0.42-0.88,0.94s0.39,0.94,0.88,0.94s0.88-0.42,0.88-0.94S6.81,154.65,6.33,154.65z
			"/>
	</g>
	<g>
		<polygon class="st5" points="88.82,23.26 78.77,32.66 69.58,24.07 60.4,32.66 51.17,24.03 41.95,32.66 31.9,23.26 33.65,23.26 
			41.92,31 51.23,22.29 60.46,30.92 69.69,22.29 78.9,30.91 87.07,23.26 		"/>
	</g>
	<g>
		<ellipse class="st6" cx="165.99" cy="232.25" rx="12.69" ry="13.55"/>
		<g>
			<g>
				<path class="st7" d="M158.67,212.79c6.58,0,11.94,5.74,11.94,12.8s-5.36,12.8-11.94,12.8c-6.58,0-11.94-5.74-11.94-12.8
					S152.09,212.79,158.67,212.79 M158.67,212.04c-7.01,0-12.69,6.07-12.69,13.55c0,7.49,5.68,13.55,12.69,13.55
					c7.01,0,12.69-6.07,12.69-13.55C171.36,218.11,165.68,212.04,158.67,212.04L158.67,212.04z"/>
			</g>
		</g>
	</g>
	<g>
		<path class="st8" d="M145.22,18.34c0,4.17,3.17,7.56,7.08,7.56c3.91,0,7.08-3.38,7.08-7.56s-3.17-7.56-7.08-7.56
			C148.39,10.78,145.22,14.17,145.22,18.34z"/>
		<g>
			<g>
				<path class="st7" d="M148.22,7.82c3.49,0,6.33,3.05,6.33,6.81c0,3.75-2.84,6.81-6.33,6.81c-3.49,0-6.33-3.05-6.33-6.81
					C141.89,10.88,144.73,7.82,148.22,7.82 M148.22,7.07c-3.91,0-7.08,3.38-7.08,7.56s3.17,7.56,7.08,7.56s7.08-3.38,7.08-7.56
					S152.12,7.07,148.22,7.07L148.22,7.07z"/>
			</g>
		</g>
	</g>
	<g>
		<path class="st4" d="M24.29,54.93c0,2.08,1.57,3.76,3.52,3.76c1.94,0,3.52-1.68,3.52-3.76c0-2.08-1.57-3.76-3.52-3.76
			C25.87,51.17,24.29,52.85,24.29,54.93z M25.45,54.93c0-1.39,1.06-2.52,2.36-2.52c1.3,0,2.36,1.13,2.36,2.52
			c0,1.39-1.06,2.52-2.36,2.52C26.51,57.45,25.45,56.32,25.45,54.93z"/>
	</g>
	<g>
		<path class="st4" d="M122.13,277.39c0,2.08,1.57,3.76,3.52,3.76c1.94,0,3.52-1.68,3.52-3.76c0-2.08-1.57-3.76-3.52-3.76
			C123.71,273.63,122.13,275.32,122.13,277.39z M123.29,277.39c0-1.39,1.06-2.52,2.36-2.52c1.3,0,2.36,1.13,2.36,2.52
			c0,1.39-1.06,2.52-2.36,2.52C124.35,279.91,123.29,278.78,123.29,277.39z"/>
	</g>
	<g>
		<polygon class="st1" points="200,300 180.18,270.6 162.96,300 		"/>
		<g>
			<path class="st7" d="M167.52,265.89l18.37,27.24h-34.32L167.52,265.89 M167.47,264.49l-17.22,29.4h37.04L167.47,264.49
				L167.47,264.49z"/>
		</g>
	</g>
	<path class="st8" d="M97.6,72.91c7.78,0,14.09,6.74,14.09,15.05H83.52C83.52,79.65,89.82,72.91,97.6,72.91z"/>
	<path class="st8" d="M41.57,165.36c7.78,0,14.09,6.74,14.09,15.05H27.49C27.49,172.1,33.79,165.36,41.57,165.36z"/>
	<path class="st4" d="M67.45,271.61c12.05,0,21.81-10.43,21.81-23.3H100c0,19.21-14.57,34.77-32.55,34.77
		c-17.98,0-32.55-15.57-32.55-34.77h10.74C45.64,261.17,55.4,271.61,67.45,271.61z"/>
	<path class="st4" d="M187.69,152.95c0-9.43-7.15-17.07-15.98-17.07v-8.4c13.17,0,23.85,11.41,23.85,25.48s-10.68,25.48-23.85,25.48
		v-8.4C180.53,170.02,187.69,162.38,187.69,152.95z"/>
</g>
<g>
</g>
<g>
</g>
<g>
</g>
<g>
</g>
<g>
</g>
<g>
</g>
<g>
</g>
<g>
</g>
<g>
</g>
<g>
</g>
<g>
</g>
<g>
</g>
<g>
</g>
<g>
</g>
<g>
</g>
</svg>
